<?xml version="1.0" standalone="no"?>
<!DOCTYPE svg PUBLIC "-//W3C//DTD SVG 1.1//EN" "http://www.w3.org/Graphics/SVG/1.1/DTD/svg11.dtd" >
<svg xmlns="http://www.w3.org/2000/svg">
<metadata></metadata>
<defs>
<font id="ccupupandawayregular" horiz-adv-x="634" >
<font-face units-per-em="2048" ascent="1638" descent="-410" />
<missing-glyph horiz-adv-x="614" />
<glyph horiz-adv-x="0" />
<glyph horiz-adv-x="682" />
<glyph unicode="&#xd;" horiz-adv-x="614" />
<glyph unicode=" "  horiz-adv-x="614" />
<glyph unicode="&#x09;" horiz-adv-x="614" />
<glyph unicode="&#xa0;" horiz-adv-x="614" />
<glyph unicode="!" horiz-adv-x="614" d="M37 1569h538l-143 -1032h-252zM88 209q0 88 60.5 149.5t148.5 61.5q86 0 147.5 -61.5t61.5 -149.5q0 -86 -61.5 -147.5t-147.5 -61.5q-87 0 -148 61t-61 148z" />
<glyph unicode="&#x22;" horiz-adv-x="968" d="M70 1550h370v-534h-252zM553 1016l4 534h367l-160 -534h-211z" />
<glyph unicode="#" horiz-adv-x="1370" d="M55 264l49 273h185l33 188h-183l49 289h183l47 264h313l-47 -264h135l47 264h312l-45 -264h182l-49 -289h-185l-34 -188h184l-47 -273h-185l-47 -264h-311l45 264h-133l-47 -264h-313l47 264h-185zM600 537h135l33 188h-133z" />
<glyph unicode="$" horiz-adv-x="890" d="M53 283l78 299q69 -48 161 -77t144 -7q17 7 28 29t11 34q0 15 -21 32.5t-54.5 36t-73.5 41t-80.5 53.5t-74 66.5t-54.5 85.5t-21 107q0 116 80 203t199 121q47 12 108 18l56 225h231l-72 -241q83 -19 162 -56l-53 -274q-186 89 -281 47q-22 -10 -22 -45q3 -10 16 -22.5 t33 -25.5t36.5 -22.5t38.5 -21.5t27 -15q123 -75 175 -172.5t32 -193.5q-48 -228 -299 -285q-8 -2 -65 -12l-62 -211h-231l53 223q-101 19 -205 60z" />
<glyph unicode="%" horiz-adv-x="1609" d="M64 1088q-23 117 26 237q39 88 110 150.5t154.5 89.5t177 17t173.5 -62q117 -74 163 -205l101 235h346l-326 -772q90 40 193.5 33.5t191.5 -63.5q117 -75 163.5 -203.5t10.5 -259.5q-31 -117 -118.5 -199t-206.5 -104q-109 -19 -212.5 14.5t-176.5 114.5q-47 54 -74 120 l-98 -231h-347l330 784q-37 -18 -92 -28q-110 -21 -214 13t-175 116q-77 86 -100 203zM354 1155q3 -37 25.5 -68t56.5 -43q33 -11 71 -2t62 37q24 29 31.5 65t-6.5 68q-18 32 -47.5 52.5t-63.5 23.5q-48 2 -90 -40.5t-39 -92.5zM1026 381q2 -37 24.5 -68t57.5 -43 q31 -12 69 -2.5t62 37.5q25 32 32.5 66t-7.5 69q-15 31 -44.5 52t-64.5 22q-50 3 -91.5 -39.5t-37.5 -93.5z" />
<glyph unicode="&#x26;" horiz-adv-x="1462" d="M88.5 454q10.5 97 54.5 182.5t115 154.5q-74 74 -103 178.5t-10 216.5q24 146 130.5 237t254.5 109q80 6 131 7.5t108 -6.5t85.5 -14.5t64.5 -16t44 -11.5l-129 -352q-100 31 -213 24q-28 -1 -49 -25.5t-27 -58.5t-1.5 -67.5t29.5 -57t66 -22.5h750v-320h-166v-612h-666 q-127 0 -267.5 80t-176.5 180q-35 97 -24.5 194zM505.5 446.5q8.5 -45.5 39.5 -71.5q32 -26 80 -34.5t88 -5.5t96 13v244q-143 31 -236 -2q-39 -14 -57.5 -56t-10 -87.5z" />
<glyph unicode="'" horiz-adv-x="507" d="M96 1016v534h369l-158 -534h-211z" />
<glyph unicode="(" horiz-adv-x="858" d="M66.5 787q4.5 152 38 289t97 259t150.5 203h486q-349 -362 -351.5 -761t351.5 -773h-519q-89 91 -148.5 220.5t-84 270t-20 292.5z" />
<glyph unicode=")" horiz-adv-x="858" d="M66 4q349 362 351.5 761t-351.5 773h518q89 -91 148.5 -220.5t84 -270t20 -292.5t-38 -289t-97 -259t-150.5 -203h-485z" />
<glyph unicode="*" horiz-adv-x="1052" d="M25 995l254 146l-248 159l137 226l221 -152v201h295v-174l199 125l125 -244l-246 -139l252 -142l-131 -251l-199 124v-176h-295v199l-221 -135z" />
<glyph unicode="+" horiz-adv-x="956" d="M102 610v322h183v264h374v-264h201v-322h-201v-241h-374v241h-183z" />
<glyph unicode="," horiz-adv-x="583" d="M-6 -156l125 535h387l-281 -535h-231z" />
<glyph unicode="-" d="M102 610v322h451v-322h-451z" />
<glyph unicode="." horiz-adv-x="522" d="M68 193q0 88 60 149t148 61q86 0 147.5 -61.5t61.5 -148.5q0 -86 -61.5 -147.5t-147.5 -61.5q-87 0 -147.5 61t-60.5 148z" />
<glyph unicode="/" horiz-adv-x="1032" d="M10 0l652 1550h348l-654 -1550h-346z" />
<glyph unicode="0" horiz-adv-x="1435" d="M45.5 777q-1.5 155 52.5 304q77 204 231 339.5t335 154.5q123 11 224.5 -16t201.5 -103q187 -145 262 -390t18 -497q-50 -224 -191.5 -383t-334.5 -198q-176 -37 -343 26.5t-284 218.5q-79 107 -124.5 248t-47 296zM485 743q5 -106 49 -193.5t111 -121.5q63 -35 137.5 -8 t120.5 110q47 81 61.5 182.5t-14.5 198.5q-32 90 -89 148.5t-124 62.5q-62 5 -123 -49t-97.5 -144.5t-31.5 -185.5z" />
<glyph unicode="1" horiz-adv-x="825" d="M41 1165l137 383h531v-1548h-428v1165h-240z" />
<glyph unicode="2" horiz-adv-x="1091" d="M-10 4l555 897q39 63 43 117t-11.5 80.5t-37.5 36.5q-25 12 -58.5 14t-62.5 -1t-76 -16t-72.5 -21.5t-79.5 -28t-71 -25.5v409q404 156 606 95q156 -47 224.5 -133t68.5 -250q0 -70 -30 -187t-83 -205l-250 -409h373v-373h-1038z" />
<glyph unicode="3" horiz-adv-x="1142" d="M88 -4v381q119 -43 249 -53t222 16q48 13 84 46t33 71q-11 99 -123.5 142.5t-366.5 43.5l275 522h-373v375h1018l-371 -614q86 -23 156.5 -66.5t116 -98.5t75 -121.5t34 -134.5t-6.5 -138q-32 -151 -151.5 -253.5t-303.5 -146.5q-84 -20 -182 -20.5t-184.5 12 t-200.5 37.5z" />
<glyph unicode="4" horiz-adv-x="1484" d="M86 289v446l801 813h368v-884h156v-375h-156v-289h-471v289h-698zM541 664h243v247z" />
<glyph unicode="5" horiz-adv-x="1171" d="M102 -4v381q190 -70 359 -64q32 1 69 9.5t76.5 26.5t65.5 53t26 81q0 34 -9.5 62t-33.5 56t-73.5 46.5t-120.5 24.5q-36 3 -119 -4t-148 -15l-65 -8v903h895v-383h-451v-166q110 0 200.5 -23.5t152.5 -66t107.5 -102t65 -129.5t24.5 -149t-13 -162q-30 -152 -150 -254 t-305 -146q-84 -20 -179 -20.5t-177 11.5t-197 38z" />
<glyph unicode="6" horiz-adv-x="1312" d="M27 548.5q-4 133.5 23.5 264t82.5 240.5q28 56 76 117.5t102.5 115t113.5 105t112.5 92t97 71.5t69.5 48l25 16l258 -283q-116 -75 -237.5 -178.5t-163.5 -175.5q50 17 117 23.5t157 -6t168 -48.5q102 -48 167 -135.5t84 -185.5t4.5 -198t-62.5 -177q-83 -134 -209 -210 t-260 -87.5t-267 24t-239 113.5q-104 76 -159.5 198.5t-59.5 256zM446 520q-5 -66 35 -108t100 -52.5t127.5 1.5t116.5 45q43 28 54 74t-18 88.5t-91 58.5q-40 9 -91 10t-103 -7.5t-89 -37t-41 -72.5z" />
<glyph unicode="7" horiz-adv-x="1169" d="M86 1165v383h1088l-582 -1548h-463l444 1165h-487z" />
<glyph unicode="8" horiz-adv-x="1349" d="M45.5 543q43.5 160 171.5 248q-78 75 -108 184t-11 229q26 156 138.5 255.5t265.5 107.5q148 8 189.5 8t150.5 -8q156 -14 266 -110.5t137 -252.5q19 -120 -11 -229t-108 -184q79 -51 127.5 -146t54 -201t-29.5 -213q-37 -103 -160.5 -179.5t-255.5 -92.5 q-56 -7 -172.5 -9t-191.5 9q-350 69 -435 272q-61 152 -17.5 312zM479 409.5q15 -52.5 72 -85.5q64 -34 142 -25t132 53q53 42 52 92.5t-64 73.5q-33 12 -118.5 36t-135.5 46q-50 -36 -72.5 -87t-7.5 -103.5zM518 1086.5q5 -56.5 49 -85.5q37 -26 106 -45t130 -24 q40 44 37.5 96t-30.5 97t-62 57q-27 8 -60.5 13t-73.5 1t-63 -22q-38 -31 -33 -87.5z" />
<glyph unicode="9" horiz-adv-x="1292" d="M23.5 1117.5q14.5 99.5 62.5 176.5q67 108 162.5 179t200 98.5t214.5 23t212.5 -41.5t187.5 -99q104 -76 159.5 -198t59 -255t-24.5 -264t-83 -241q-38 -77 -113.5 -163.5t-155.5 -155t-154.5 -126.5t-122.5 -89l-48 -32l-258 285q114 72 235 176t164 178 q-49 -18 -117 -24.5t-157 5.5t-166 48q-102 48 -167.5 136t-85 186t-5 197.5zM429.5 1069.5q-10.5 -46.5 18.5 -88.5t91 -57q40 -10 91 -11.5t102 7t87.5 37t40.5 73.5q7 86 -60.5 129t-159 36.5t-157.5 -50.5q-43 -29 -53.5 -75.5z" />
<glyph unicode=":" horiz-adv-x="522" d="M68 193q0 88 60 149t148 61q86 0 147.5 -61.5t61.5 -148.5q0 -86 -61.5 -147.5t-147.5 -61.5q-87 0 -147.5 61t-60.5 148zM68 797q0 87 60.5 148t147.5 61q86 0 147.5 -61.5t61.5 -147.5q0 -88 -61.5 -149.5t-147.5 -61.5q-87 0 -147.5 61.5t-60.5 149.5z" />
<glyph unicode=";" horiz-adv-x="583" d="M-6 -156l125 535h387l-281 -535h-231zM88 797q0 87 61 148t148 61q86 0 147.5 -61.5t61.5 -147.5q0 -88 -61.5 -149.5t-147.5 -61.5q-88 0 -148.5 61.5t-60.5 149.5z" />
<glyph unicode="&#x3c;" horiz-adv-x="1003" d="M80 784l412 754h485l-412 -760l410 -774h-518z" />
<glyph unicode="=" d="M102 391v322h451v-322h-451zM102 815v324h451v-324h-451z" />
<glyph unicode="&#x3e;" horiz-adv-x="1003" d="M80 4l409 760l-409 774h518l379 -778l-412 -756h-485z" />
<glyph unicode="?" horiz-adv-x="1155" d="M102 1137v381q93 21 150.5 32t132.5 21t140.5 9t129.5 -11q114 -19 195.5 -55t133 -89.5t80.5 -114.5t46 -143q23 -116 -32.5 -228.5t-183 -194.5t-298.5 -101l-16 -131h-291l-43 412q123 0 211.5 14t135.5 38.5t68 52.5t21 63q0 30 -24.5 59t-57.5 43q-43 19 -104.5 22 t-129.5 -8.5t-133.5 -29t-130.5 -41.5zM217 193q0 88 61.5 149t149.5 61q86 0 147.5 -61.5t61.5 -148.5q0 -86 -61.5 -147.5t-147.5 -61.5q-88 0 -149.5 61.5t-61.5 147.5z" />
<glyph unicode="@" horiz-adv-x="1708" d="M65 622.5q-42 236.5 54 458.5q60 134 159.5 239t222.5 166.5t257.5 84t274.5 -6.5t263 -108q112 -72 187.5 -168t109 -206t29.5 -232t-47 -248q-54 -159 -163 -278t-232 -183l-217 199v106q-110 -44 -189 -47t-158 41q-100 59 -138.5 177.5t-12.5 242.5q15 70 50.5 126 t85.5 90.5t109 51.5t124.5 12.5t128.5 -30.5v53h237v-696q94 82 146.5 246t11.5 291q-43 135 -177 221t-292 94q-138 8 -272 -73t-214.5 -217t-70.5 -279q10 -156 105.5 -271.5t248.5 -167.5q29 -12 111.5 -11t136.5 22l201 -209q-57 -32 -136 -53t-176 -25t-193.5 11.5 t-195 63t-174.5 123.5q-153 153 -195 389.5zM700 788q-9 -106 84 -147q29 -12 84.5 1.5t94.5 55.5v156q-56 36 -93 46t-77 -5q-88 -40 -93 -107z" />
<glyph unicode="A" horiz-adv-x="1472" d="M6 0l426 1528h615l397 -1528h-461l-63 197h-373l-49 -197h-492zM635 608h205l-105 404z" />
<glyph unicode="B" horiz-adv-x="1417" d="M98 0v1546h762q158 0 277 -97.5t147 -248.5q8 -45 9 -89q1 -67 -19 -129q-32 -104 -115 -177q79 -69 129 -159q52 -90 64 -190q3 -23 3 -45q0 -77 -34 -151q-59 -126 -200 -193t-292 -67h-731zM555 362q61 -10 105 -13q11 -1 24 -1q34 0 72 6q52 8 87.5 34.5t44.5 72.5 q3 14 3 28q-1 31 -15 59q-20 42 -63 56q-53 17 -120 17q-63 0 -138 -15v-244zM555 938q62 -10 111 -10q100 0 147 41q42 37 42 89q0 50 -29 84q-29 36 -66 36q-4 0 -22 1.5t-24 1.5t-22.5 1t-24.5 1h-22.5t-24 -1t-22 -2.5t-23 -3.5t-20.5 -5v-233z" />
<glyph unicode="C" horiz-adv-x="1288" d="M68 954q27 127 92 236.5t155.5 188.5t204.5 130.5t240 61.5q34 3 69 3q94 0 191 -20q54 -12 106 -38t78 -46l25 -20q-88 -259 -123 -363q-84 59 -194 73q-27 3 -54 4q-81 0 -156 -31q-93 -39 -156.5 -126.5t-72.5 -185.5q-2 -20 -1 -40q0 -100 46 -189q56 -106 166 -152 q51 -22 123 -28q20 -2 40 -3q53 0 111 13q78 17 125 59l127 -362q-196 -123 -433 -123h-10q-243 2 -421 133q-182 132 -256 360q-43 134 -43 271q0 96 21 194z" />
<glyph unicode="D" horiz-adv-x="1437" d="M102 0v1532h516q521 0 672 -326q40 -85 64 -186q24 -102 30 -218l2 -46q0 -94 -22 -196q-26 -126 -86 -241q-166 -319 -664 -319h-512zM580 369q178 0 247 88q37 49 67 153q29 97 28 162v8q-1 82 -21 156t-49 119q-22 33 -58 52.5t-72 24.5q-38 4 -76 6q-13 0 -24 1 q-23 0 -42 -2v-768z" />
<glyph unicode="E" horiz-adv-x="1083" d="M88 4v1544h916v-383h-451v-233h451v-322h-451v-233h451v-373h-916z" />
<glyph unicode="F" horiz-adv-x="1112" d="M102 4v1544h916v-383h-451v-233h451v-342h-451v-586h-465z" />
<glyph unicode="G" horiz-adv-x="1392" d="M68 954q27 127 92 238.5t156.5 192t205.5 133t240 60.5q25 2 51 2q101 0 207 -26q82 -23 145.5 -53t118.5 -80q-17 -49 -83 -170.5t-95 -163.5q-84 60 -194 73q-27 4 -54 4q-81 0 -156 -31q-93 -39 -156.5 -126.5t-72.5 -185.5q-2 -20 -2 -40q0 -100 47 -189 q56 -106 166 -152q27 -12 54 -19t58 -10t47.5 -3.5t54.5 0t46 0.5v202h-188v318h575v-760q-104 -69 -233.5 -111t-261.5 -51q-31 -3 -63 -3q-100 0 -199 23q-131 31 -228 103q-182 132 -256 360q-43 134 -43 271q0 96 21 194z" />
<glyph unicode="H" horiz-adv-x="1513" d="M102 0v1548h465v-575h400v575h471v-1548h-471v569h-400v-569h-465z" />
<glyph unicode="I" horiz-adv-x="663" d="M106 0v1548h472v-1548h-472z" />
<glyph unicode="J" horiz-adv-x="1103" d="M43 68l174 383q12 -9 32 -21.5t66.5 -33.5t75.5 -21q44 0 76.5 14.5t50.5 36t28.5 55t13.5 63t3 68.5v938h461v-1054q0 -156 -89 -288t-249 -208q-71 -35 -178 -44q-26 -2 -54 -2q-85 0 -181 20q-128 28 -230 94z" />
<glyph unicode="K" horiz-adv-x="1331" d="M106 4v1544h455v-465l254 465h475l-413 -770l411 -774h-508l-219 455v-455h-455z" />
<glyph unicode="L" horiz-adv-x="1009" d="M76 0v1548h428v-1206h422v-342h-850z" />
<glyph unicode="M" horiz-adv-x="1671" d="M84 0v1550h477l289 -497l295 497h438v-1550h-434v678l-303 -512l-330 532v-698h-432z" />
<glyph unicode="N" horiz-adv-x="1466" d="M90 0v1546h408l428 -616v616h430v-1546h-441l-417 647v-647h-408z" />
<glyph unicode="O" horiz-adv-x="1708" d="M58 854q12 119 61 227q92 205 273 340t396 154q43 3 83 3q99 0 185 -19q120 -27 240 -103q223 -145 312 -390q51 -140 51 -282q0 -107 -29 -215q-59 -224 -227.5 -383t-396.5 -198q-77 -14 -153 -14q-130 0 -256 40q-199 64 -337 219q-71 80 -120 181t-71 211 q-14 72 -14 148q-1 40 3 81zM512 743q8 -106 73 -193.5t163 -121.5q52 -20 110 -20q44 0 92 12q110 27 178 110q44 52 70 116.5t28 133.5v6q0 66 -30 125q-46 90 -129.5 148.5t-183.5 62.5h-15q-84 0 -166 -49q-90 -55 -143 -145q-48 -80 -47 -163q-1 -11 0 -22z" />
<glyph unicode="P" horiz-adv-x="1372" d="M94 0v1548h721q121 0 228.5 -57.5t179.5 -155.5q62 -89 81 -205q9 -55 9 -110q0 -60 -11 -117q-21 -110 -73 -198q-29 -51 -68 -91.5t-76.5 -67.5t-89 -47t-90 -31t-96 -18.5t-90 -10t-90 -5.5t-78.5 -4v-430h-457zM551 825h16q234 0 301 86q25 33 27 79v8q0 42 -21 79 q-21 34 -58 53t-91 23q-43 3 -72 3h-14q-32 -1 -88 -5v-326z" />
<glyph unicode="Q" horiz-adv-x="1769" d="M67 778v9q0 153 64 300q95 209 280.5 347t405.5 157q43 3 83 3q102 0 190 -20q122 -27 243 -104q229 -148 320 -398q52 -141 52 -287q0 -110 -30 -222q-57 -209 -202 -360l241 -348h-491l-95 137q-73 -19 -90 -21q-79 -14 -157 -14q-132 0 -261 41q-203 67 -344 225 q-97 109 -152 253t-57 302zM535 743q8 -110 73.5 -199t165.5 -122q26 -9 66 -16l-209 301h491l84 -121q30 52 44 106q12 43 12 89q0 12 -1 25q-4 59 -30 109q-47 91 -132 150t-186 65h-16q-86 0 -169 -50q-91 -55 -146 -148q-48 -81 -48 -167q0 -11 1 -22z" />
<glyph unicode="R" horiz-adv-x="1380" d="M84 0v1544q236 1 428.5 1t341.5 -1q111 0 244.5 -99.5t179.5 -207.5q38 -86 40 -188v-17q0 -92 -26 -178q-28 -94 -86 -175.5t-137 -127.5l279 -551h-512q-232 473 -238 477h-53v-477h-461zM545 817q94 0 137 4q61 5 111.5 43t62.5 92q5 20 5 40q0 52 -34 104 q-23 30 -54.5 47.5t-70.5 21.5q-31 3 -57 3h-12q-30 -1 -70 -5q-6 -1 -10 -1.5t-8 -0.5v-348z" />
<glyph unicode="S" horiz-adv-x="1157" d="M86 1104q0 161 103 280.5t260 167.5q106 32 235 32q147 0 324 -42v-387q-130 46 -231 46q-81 0 -144 -30q-29 -13 -44.5 -36.5t-6.5 -47.5q9 -25 40 -54t59.5 -47.5t74 -45.5t57.5 -35q143 -95 222 -227q57 -95 57 -201q0 -42 -9 -86q-30 -149 -147.5 -250.5 t-300.5 -146.5q-81 -20 -172 -20h-5q-94 0 -175 13t-195 38v376q174 -64 303 -64q85 0 150 28q32 14 56 43t24 59q0 24 -20 50.5t-55 52t-65.5 44.5t-70.5 41.5t-50 28.5q-120 75 -197 182.5t-77 237.5z" />
<glyph unicode="T" horiz-adv-x="1185" d="M55 1124v424h1080v-424h-314v-1120h-465v1120h-301z" />
<glyph unicode="U" horiz-adv-x="1458" d="M86 520v1030h479v-942q0 -246 168 -246q54 0 92.5 22.5t57.5 61t27 79t8 87.5v938h460v-1054q0 -107 -36 -205t-114.5 -177.5t-187.5 -113.5q-177 -54 -332 -54q-206 0 -376 95q-70 39 -121 99t-76.5 127.5t-37 129.5t-11.5 123z" />
<glyph unicode="V" horiz-adv-x="1486" d="M14 1548h523l196 -975l207 975h512l-391 -1548h-655z" />
<glyph unicode="W" horiz-adv-x="2017" d="M0 1548h504l139 -729l162 729h350l182 -729l140 729h491l-364 -1548h-469l-154 616l-152 -616h-471z" />
<glyph unicode="X" horiz-adv-x="1331" d="M16 4l410 780l-410 754h519l143 -317l160 317h485l-410 -760l410 -774h-518l-143 318l-160 -318h-486z" />
<glyph unicode="Y" horiz-adv-x="1282" d="M10 1538h488l157 -352l181 352h454l-416 -784v-756h-446v756z" />
<glyph unicode="Z" horiz-adv-x="1118" d="M47 4l445 1161h-406v383h1006l-437 -1171h410v-373h-1018z" />
<glyph unicode="[" horiz-adv-x="878" d="M88 4v1544h690v-383h-221v-788h221v-373h-690z" />
<glyph unicode="\" horiz-adv-x="1032" d="M10 1550h346l654 -1550h-346z" />
<glyph unicode="]" horiz-adv-x="878" d="M88 4v381h221v789h-221v374h690v-1544h-690z" />
<glyph unicode="^" horiz-adv-x="1126" d="M33 981l536 670l527 -670h-389l-136 203l-135 -203h-403z" />
<glyph unicode="_" horiz-adv-x="1118" d="M102 0v322h902v-322h-902z" />
<glyph unicode="`" horiz-adv-x="583" d="M84 1552h387l127 -536h-231z" />
<glyph unicode="a" horiz-adv-x="1007" d="M37 451q22 81 78 139t134 84q77 26 173 30q13 1 26 1q83 0 170 -23l15 -2q0 35 -18 63t-48 37q-26 10 -81 14q-14 1 -30 1q-46 0 -104 -10q-78 -13 -123 -52l-125 242q62 42 146 69q84 28 162 37q59 7 112 7q18 0 36 -1q70 -3 114 -18q118 -39 205.5 -144.5t87.5 -236.5 v-688h-328v47q-68 -22 -110 -33q-43 -11 -99 -19q-30 -4 -58 -4q-24 0 -47 3q-49 7 -96 29q-128 63 -177 183q-29 71 -29 143q0 51 14 102zM366 366q-1 -4 -1 -8q1 -24 23 -48q26 -28 77 -38q9 -1 19 -1q27 0 64 9q51 13 91 46v86q-21 11 -36.5 17t-33 8.5t-26.5 2.5h-13 h-22h-39q-43 -1 -71 -23.5t-32 -50.5z" />
<glyph unicode="b" horiz-adv-x="1105" d="M74 0v1536h352v-541q70 25 144 37q40 6 82 6q37 0 77 -4q85 -10 152 -49q88 -50 141 -139q52 -88 66 -186q8 -55 8 -110q0 -42 -4 -84q-10 -96 -43 -173q-20 -49 -41 -85.5t-59.5 -78t-85.5 -68t-120 -44t-163 -17.5q-25 0 -63.5 11t-64.5 21l-26 11v-43h-352zM424 369 q58 -38 126 -38q7 1 15 1q77 4 127 49q38 34 56 91q9 29 9 60q0 28 -8 58q-17 62 -73 96q-28 18 -64 20q-11 1 -20 0q-24 0 -42 -4q-26 -6 -68.5 -18.5t-57.5 -15.5v-299z" />
<glyph unicode="c" horiz-adv-x="925" d="M63 657q32 146 133.5 249.5t245.5 143.5q76 21 154 20q71 0 145 -17q39 -8 81 -29.5t64 -39.5l23 -17q-67 -187 -100 -293q-73 51 -147 64q-25 4 -48 4q-45 0 -82 -17q-57 -25 -96 -76t-43 -108q-1 -11 -1 -22q0 -61 28 -114q34 -62 98 -88q32 -15 77 -17h12q40 0 88 14 q55 16 96 53l106 -299q-155 -95 -331 -96h-3q-173 0 -301 91q-130 94 -182 262q-31 100 -32 198q0 67 15 134z" />
<glyph unicode="d" horiz-adv-x="1140" d="M47 643q49 235 223 337q104 60 226 60q83 0 176 -28q5 -2 15.5 -5.5l19.5 -6.5t16 -7v551h354v-1544h-354v82q-65 -42 -135 -62q-54 -16 -114 -16q-19 0 -38 2q-81 6 -157 45q-145 73 -206 243q-39 108 -39 220q0 64 13 129zM395 543q-1 -14 -1 -27q0 -60 22 -99 q28 -48 96 -71q29 -6 64.5 -6t77.5 20t69 56v241q-29 26 -88 40q-33 8 -64 8q-24 0 -47 -5q-116 -30 -129 -157z" />
<glyph unicode="e" horiz-adv-x="1032" d="M22 516q2 110 44 215q43 106 121.5 184.5t176 117.5t209.5 43q8 0 16 -1q104 0 206 -41q101 -40 171 -136q67 -91 66 -181v-10l-543 -373q41 -32 93 -42q14 -3 29 -3q41 1 89 19q66 26 131 89l113 -303q-88 -75 -200 -105q-78 -21 -153 -21q-31 0 -63 4q-104 13 -198 53 t-156 100q-76 73 -115 177q-37 97 -37 201v13zM344 512l326 229q-52 25 -102 25q-25 0 -50 -6q-58 -13 -104.5 -59t-61.5 -103q-9 -29 -9 -66q0 -10 1 -20z" />
<glyph unicode="f" horiz-adv-x="808" d="M47 684v322h154l2 116q0 298 235 418q54 26 119 35q21 3 45 3q48 0 106 -12q87 -19 166 -71l-133 -299q-6 6 -17 14t-37.5 19.5t-45.5 7.5t-33 -13t-22.5 -22.5t-13.5 -30.5t-6.5 -38t-2.5 -45.5t0 -52.5v-29h180v-322h-184v-682h-356v682h-156z" />
<glyph unicode="g" horiz-adv-x="1130" d="M64 610q11 104 65.5 199.5t144.5 148.5q106 64 220 66h5q111 0 236 -55v73h320v-954q0 -135 -86.5 -259t-206.5 -175q-65 -26 -175 -34q-29 -1 -59 -1q-83 0 -174 15q-123 21 -198 71l118 287q65 -39 128 -58q52 -15 95 -15q8 0 16 1q49 3 76.5 9t51.5 16q84 33 94 139 q-24 -10 -47 -16q-84 -27 -165 -27q-22 0 -45 3q-101 9 -182.5 49.5t-140.5 119t-81 184.5q-13 71 -13 141q0 36 3 72zM387 494q5 -56 45.5 -99.5t95.5 -44.5h25h30q21 2 42.5 10.5t29.5 12.5t36.5 24t43.5 29v207q-33 36 -77 53q-43 16 -77 16h-3q-36 -1 -62 -12 q-65 -28 -100 -78q-30 -42 -30 -96q0 -11 1 -22z" />
<glyph unicode="h" horiz-adv-x="1124" d="M86 0v1544h373v-536q123 72 234 73q85 0 163 -43q199 -110 199 -415v-623h-355v592q0 93 -77 139q-23 11 -46 11q-15 0 -29 -5q-36 -12 -63 -37l-26 -24v-676h-373z" />
<glyph unicode="i" horiz-adv-x="522" d="M68 1360q0 87 60.5 148t147.5 61q86 0 147.5 -61.5t61.5 -147.5q0 -87 -61 -148t-148 -61q-88 0 -148 60.5t-60 148.5zM80 0v1032h375v-1032h-375z" />
<glyph unicode="j" horiz-adv-x="550" d="M-270 -340l118 283q117 -45 152 -45q96 0 96 159v975h379v-1032q0 -121 -69 -225t-185 -160q-53 -26 -135 -31q-17 -2 -36 -2q-66 0 -142 16q-96 19 -178 62zM88 1360q0 87 61 148t148 61q86 0 147.5 -61.5t61.5 -147.5q0 -87 -61 -148t-148 -61q-88 0 -148.5 60.5 t-60.5 148.5z" />
<glyph unicode="k" horiz-adv-x="1021" d="M82 0v1548h356v-794l189 280h391l-326 -485l330 -549h-393l-191 328v-328h-356z" />
<glyph unicode="l" horiz-adv-x="534" d="M72 0v1548h377v-1548h-377z" />
<glyph unicode="m" horiz-adv-x="1617" d="M82 0v1036h356v-75q66 39 118 60t124 22h3q69 0 132 -35q54 -28 96 -80q113 92 237 113q35 6 67 6q84 0 153 -39q191 -102 191 -394v-614h-338v584q0 90 -74 133q-23 11 -42.5 11.5t-42 -10.5t-36 -21.5t-25.5 -22.5q3 -30 3 -60v-614h-338v584q0 91 -72 133 q-22 12 -44 9t-42 -16.5t-35.5 -28t-24.5 -26.5l-10 -12v-643h-356z" />
<glyph unicode="n" horiz-adv-x="1071" d="M82 0v1036h356v-75q66 39 118 60t124 22h3q69 0 132 -35q189 -101 189 -394v-614h-338v584q0 91 -72 133q-22 12 -44 9t-42 -16.5t-35.5 -28t-24.5 -26.5l-10 -12v-643h-356z" />
<glyph unicode="o" horiz-adv-x="1167" d="M18 524v6q0 104 45 205q52 117 147 201q94 83 206 119q81 26 169 26q33 1 67 -3q124 -14 229 -83q157 -99 219 -269q35 -96 34 -195q0 -75 -20 -152q-42 -154 -159 -264.5t-275 -139.5q-52 -9 -104 -9q-92 0 -180 29q-138 45 -234 152q-67 74 -104.5 171.5t-39.5 205.5z M362 504q5 -66 46 -120.5t102 -76.5q32 -12 68 -12q26 0 56 7q68 17 111 69q42 53 55 115q4 21 4 42q0 40 -16 78q-30 57 -82 93.5t-112 39.5h-11q-82 -1 -152 -71q-69 -70 -70 -151q1 -6 1 -13z" />
<glyph unicode="p" horiz-adv-x="1150" d="M78 -305v1339h354v-59q96 42 168 58q44 10 90 10q28 0 57 -4q75 -10 148 -54q71 -42 119.5 -111t67 -146.5t20.5 -164.5q1 -10 1 -19q0 -77 -18 -147q-48 -229 -213 -331q-100 -62 -221 -62q-79 0 -168 27q-34 8 -51 16v-352h-354zM432 385q3 -2 8 -5.5t23.5 -13.5 t39.5 -14.5t55 -8.5q12 -1 25 -1q22 0 46 4q58 9 91 50t38 102q1 15 1 30q0 60 -23 108q-29 58 -95 69q-24 4 -46 4q-34 0 -66 -9q-52 -16 -75 -36l-22 -21v-258z" />
<glyph unicode="q" horiz-adv-x="1128" d="M31 377q-15 70 -15 139q0 100 32 199q54 166 194 252q110 66 230 67h4q119 0 251 -59v59h334v-1257l-334 -133v403q-13 -7 -51 -16q-89 -28 -175 -28q-22 0 -45 1q-106 10 -192.5 53t-148 126t-84.5 194zM358 477q6 -59 49 -103.5t101 -45.5h32h26q23 1 45.5 10t31 13 t39 25t45.5 30v217q-35 39 -81 57q-45 18 -81 18h-4q-38 -1 -65 -14q-68 -29 -106 -82q-33 -47 -33 -106q0 -9 1 -19z" />
<glyph unicode="r" horiz-adv-x="817" d="M74 0v1030h338v-72q39 28 78 46t88 28q32 7 68 7q20 1 40 -1q58 -6 123 -28l-127 -314q-35 25 -82.5 25t-88.5 -20.5t-70 -58t-29 -81.5v-561h-338z" />
<glyph unicode="s" horiz-adv-x="890" d="M33 37l78 299q69 -48 161 -77q52 -16 92 -16q30 0 52 9q17 7 28 29t11 34q0 15 -21 32.5t-54.5 36t-73.5 41t-80.5 53.5t-74 66.5t-54.5 85.5t-21 107q0 116 79.5 203t198.5 121q61 20 147 20q37 1 79 -3q138 -12 260 -70l-54 -275q-126 60 -210 60q-40 0 -70 -13 q-23 -10 -23 -45q4 -13 25.5 -30t40.5 -28.5t50.5 -28.5t35.5 -19q123 -75 175 -173q38 -71 38 -141q0 -27 -6 -53q-48 -228 -299 -285q-68 -16 -144 -16q-165 0 -366 76z" />
<glyph unicode="t" horiz-adv-x="796" d="M55 688v330h146v123l346 239v-362h194v-330h-196v-266q1 -46 35 -82q34 -35 79 -35h3q14 1 36.5 6t37.5 10l16 5v-303q-121 -37 -224 -41h-21q-145 0 -223 78q-83 84 -83 251v377h-146z" />
<glyph unicode="u" horiz-adv-x="1019" d="M57 358v674h357v-616q0 -68 28.5 -100.5t69.5 -32.5q52 0 81.5 38.5t29.5 96.5v614h344v-670q0 -118 -60.5 -222.5t-171.5 -139.5q-75 -24 -153 -32q-38 -4 -75 -3q-40 0 -79 4q-76 8 -143 36.5t-118 74.5t-80.5 117.5t-29.5 160.5z" />
<glyph unicode="v" horiz-adv-x="980" d="M2 1030h348l139 -524l132 524h368l-309 -1030h-395z" />
<glyph unicode="w" horiz-adv-x="1560" d="M2 1030h348l139 -524l132 524h309l139 -524l129 524h369l-310 -1030h-395l-88 272l-94 -272h-395z" />
<glyph unicode="x" horiz-adv-x="1034" d="M-31 0l330 526l-311 510h389l129 -239l141 239h387l-340 -495l340 -541h-391l-135 254l-135 -254h-404z" />
<glyph unicode="y" horiz-adv-x="1017" d="M6 -289l131 295q82 -61 119 -61q35 0 57 29q16 21 16 43q0 9 -3 18l-310 995h349l139 -506l131 506h369l-326 -1030q-17 -55 -27 -84t-30.5 -76t-41.5 -75.5t-54 -59.5t-74 -51q-49 -25 -121 -30q-14 -2 -29 -2q-60 0 -131 18q-88 21 -164 71z" />
<glyph unicode="z" horiz-adv-x="841" d="M20 2l322 746h-281v296h762l-315 -749h285v-293h-773z" />
<glyph unicode="{" horiz-adv-x="858" d="M33 780q43 24 65.5 37t63.5 41t61.5 50t43.5 57t27.5 69t-3.5 79t-35 93q-25 51 -21 99.5t33.5 94.5t66.5 80t79 58h424q-95 -58 -144 -165.5t-16 -196.5q22 -58 22 -110.5t-15 -92.5t-48.5 -79t-67.5 -66.5t-82 -59.5q265 -187 185 -373q-94 -223 162 -395h-457 q-96 51 -140.5 152.5t-5.5 230.5q38 126 -23.5 231.5t-174.5 165.5z" />
<glyph unicode="|" horiz-adv-x="1083" d="M88 4v373h223v788h-223v383h916v-383h-222v-788h222v-373h-916z" />
<glyph unicode="}" horiz-adv-x="858" d="M33 0q95 58 144 165.5t16 196.5q-22 58 -22 110.5t15 92.5t48 79t67 66.5t82 59.5q-264 187 -184 373q94 223 -162 395h457q96 -51 140 -152.5t5 -230.5q-38 -125 23.5 -230.5t175.5 -166.5q-44 -24 -66 -37t-63 -41.5t-61.5 -50t-44 -56.5t-28 -69t3.5 -79t35 -93 q25 -51 21 -99.5t-33 -94t-66 -80t-79 -58.5h-424z" />
<glyph unicode="~" horiz-adv-x="1103" d="M80 1044v369q95 72 129 92q153 90 290 8q23 -14 46 -32q45 -36 90.5 -55t82.5 -25t78.5 3t68 19t62.5 33t52 35.5t45 36.5v-371q-25 -27 -59 -51t-82.5 -43t-99 -23t-109.5 16t-113 66q-59 50 -121.5 67t-112.5 8.5t-100.5 -36t-83 -55.5t-63.5 -62z" />
<glyph unicode="&#xa8;" horiz-adv-x="1120" d="M68 1350q0 87 60.5 148t147.5 61q86 0 147.5 -61.5t61.5 -147.5q0 -88 -61.5 -149.5t-147.5 -61.5q-87 0 -147.5 61.5t-60.5 149.5zM623 1346q0 87 61.5 147.5t149.5 60.5q87 0 147.5 -60.5t60.5 -147.5q0 -88 -61 -148.5t-147 -60.5q-88 0 -149.5 60.5t-61.5 148.5z" />
<glyph unicode="&#xa9;" horiz-adv-x="1708" d="M58.5 854q11.5 119 60.5 227q92 205 273 340t396 154q147 11 267.5 -16t240.5 -103q223 -145 312 -390t22 -497q-59 -224 -227.5 -383t-396.5 -198q-210 -37 -409 26.5t-337 218.5q-71 80 -120 181t-71 211t-10.5 229zM332 750q11 -161 108 -292t246 -182 q72 -24 149.5 -26.5t153 15t145 59.5t121.5 104q66 80 105 177.5t42.5 202t-44.5 196.5q-69 134 -194.5 221t-274.5 94q-138 8 -272 -73t-214.5 -217t-70.5 -279zM483 883q25 109 101.5 186t184 106.5t222.5 4.5q30 -6 62 -22.5t49 -29.5l16 -14q-49 -139 -76 -219 q-113 78 -206 37q-42 -17 -71 -56t-34 -81q-5 -55 20.5 -101.5t73.5 -66.5q25 -10 58 -11.5t74 10t73 38.5l80 -224q-117 -71 -248.5 -72t-228.5 68q-97 70 -137 196.5t-13 250.5z" />
<glyph unicode="&#xad;" d="M102 610v322h451v-322h-451z" />
<glyph unicode="&#xae;" horiz-adv-x="1708" d="M58.5 854q11.5 119 60.5 227q92 205 273 340t396 154q147 11 267.5 -16t240.5 -103q223 -145 312 -390t22 -497q-59 -224 -227.5 -383t-396.5 -198q-210 -37 -409 26.5t-337 218.5q-71 80 -120 181t-71 211t-10.5 229zM332 750q11 -161 108 -292t246 -182 q72 -24 149.5 -26.5t153 15t145 59.5t121.5 104q66 80 105 177.5t42.5 202t-44.5 196.5q-69 134 -194.5 221t-274.5 94q-138 8 -272 -73t-214.5 -217t-70.5 -279zM586 387v772h383q57 0 124 -49.5t89 -103.5q23 -63 18.5 -131t-41 -129t-92.5 -84l139 -275h-235 q-115 236 -119 238h-37v-238h-229zM815 795q47 0 70 2q30 2 55 21t31 46q9 38 -15 72q-5 7 -11 12.5t-11.5 9.5t-14.5 6.5t-14 4.5t-16 2.5t-15 1t-16.5 0t-14.5 -0.5t-15 -2l-13 -1v-174z" />
<glyph unicode="&#xb0;" horiz-adv-x="956" d="M64 1088q-23 117 26 237q39 88 110 150.5t154.5 89.5t177 17t173.5 -62q116 -73 162.5 -201t11.5 -260q-31 -116 -119 -198.5t-207 -104.5q-110 -21 -214 13t-175 116q-77 86 -100 203zM354 1155q3 -37 25.5 -68t56.5 -43q33 -11 71 -2t62 37q24 29 31.5 65t-6.5 68 q-18 32 -47.5 52.5t-63.5 23.5q-48 2 -90 -40.5t-39 -92.5z" />
<glyph unicode="&#xb3;" horiz-adv-x="1429" d="M53.5 1121q14.5 104 59.5 177q63 102 161 169.5t207 92t223.5 20t219 -40.5t184.5 -95q90 -66 148 -172.5t78.5 -229.5t15 -250t-36.5 -247q-35 -133 -107.5 -244t-184.5 -192.5t-258.5 -111t-328.5 0.5q-47 8 -113 33.5t-109 46.5l-42 22l178 328q9 -5 25 -13.5 t64 -26.5t94 -27.5t107.5 -6.5t113.5 27q101 47 146.5 100.5t59.5 128.5q-110 -66 -239.5 -85.5t-232.5 -2.5t-189 56q-97 45 -159 138t-80.5 197t-4 208zM459.5 1062.5q-10.5 -49.5 17 -94.5t86.5 -59q73 -18 170.5 9.5t179.5 95.5q-32 56 -82.5 95.5t-105 56t-111.5 10 t-102 -36.5q-42 -27 -52.5 -76.5z" />
<glyph unicode="&#xb4;" horiz-adv-x="583" d="M84 1016l125 536h389l-283 -536h-231z" />
<glyph unicode="&#xbc;" horiz-adv-x="1429" d="M68 954q27 126 92 237.5t156.5 192t205.5 133t239.5 61.5t258.5 -24q82 -23 145.5 -53t118.5 -80q-17 -49 -83 -170.5t-95 -163.5q-84 60 -194 73.5t-210 -27.5q-212 -90 -229 -271q111 68 244.5 98t246.5 22t193 -46q97 -45 159 -128.5t80.5 -177.5t4.5 -189.5 t-60 -168.5q-63 -102 -161 -168.5t-207 -91t-223.5 -19.5t-219 41t-184.5 95q-182 132 -256 361t-22 464zM543 520q43 -75 115.5 -118.5t145.5 -43.5t140 39q41 27 51.5 76.5t-18 94.5t-86.5 59q-74 18 -171 -10t-177 -97z" />
<glyph unicode="&#xd1;" horiz-adv-x="917" d="M41 811v365h229v360h387v-360h215v-365h-219v-809h-381v809h-231z" />
<glyph unicode="&#xe5;" horiz-adv-x="1091" d="M45 627q46 214 221 312.5t393 35.5q32 -8 48 -17v72h319v-1030h-319v74q-91 -38 -165 -53.5t-150.5 -6t-145.5 51.5q-133 80 -184 238t-17 323zM358 530q-12 -143 111 -196q40 -17 115 3t123 75v204q-35 23 -62.5 37.5t-56 24t-55 8.5t-52.5 -12q-56 -25 -87.5 -59 t-35.5 -85z" />
<glyph unicode="&#xf7;" horiz-adv-x="956" d="M102 610v322h758v-322h-758zM279 285q0 87 60.5 148t147.5 61t148 -61t61 -148q0 -88 -60.5 -149.5t-148.5 -61.5q-87 0 -147.5 61.5t-60.5 149.5zM279 1264q0 88 60 148.5t148 60.5t148.5 -60.5t60.5 -148.5q0 -87 -61 -148t-148 -61t-147.5 61t-60.5 148z" />
<glyph unicode="&#x2000;" horiz-adv-x="825" />
<glyph unicode="&#x2001;" horiz-adv-x="1651" />
<glyph unicode="&#x2002;" horiz-adv-x="825" />
<glyph unicode="&#x2003;" horiz-adv-x="1651" />
<glyph unicode="&#x2004;" horiz-adv-x="550" />
<glyph unicode="&#x2005;" horiz-adv-x="412" />
<glyph unicode="&#x2006;" horiz-adv-x="275" />
<glyph unicode="&#x2007;" horiz-adv-x="275" />
<glyph unicode="&#x2008;" horiz-adv-x="206" />
<glyph unicode="&#x2009;" horiz-adv-x="330" />
<glyph unicode="&#x200a;" horiz-adv-x="91" />
<glyph unicode="&#x2010;" d="M102 610v322h451v-322h-451z" />
<glyph unicode="&#x2011;" d="M102 610v322h451v-322h-451z" />
<glyph unicode="&#x2012;" d="M102 610v322h451v-322h-451z" />
<glyph unicode="&#x2013;" horiz-adv-x="956" d="M102 610v322h758v-322h-758z" />
<glyph unicode="&#x2014;" horiz-adv-x="1247" d="M102 610v322h1065v-322h-1065z" />
<glyph unicode="&#x2018;" horiz-adv-x="608" d="M35 1550h428l125 -534h-273z" />
<glyph unicode="&#x2019;" horiz-adv-x="608" d="M35 1016l125 534h428l-281 -534h-272z" />
<glyph unicode="&#x201c;" horiz-adv-x="968" d="M86 1550h387l127 -534h-231zM573 1550h367l4 -534h-231z" />
<glyph unicode="&#x201d;" horiz-adv-x="968" d="M86 1016l4 534h367l-140 -534h-231zM430 1016l127 534h387l-282 -534h-232z" />
<glyph unicode="&#x2022;" horiz-adv-x="655" d="M76 776q0 108 77 185t185 77t185 -77t77 -185q0 -109 -76.5 -185.5t-185.5 -76.5t-185.5 76.5t-76.5 185.5z" />
<glyph unicode="&#x202f;" horiz-adv-x="330" />
<glyph unicode="&#x205f;" horiz-adv-x="412" />
<glyph unicode="&#x2122;" horiz-adv-x="1554" d="M94 1327v213h541v-213h-156v-561h-233v561h-152zM725 766v774h238l145 -248l147 248h220v-774h-218v338l-151 -256l-166 266v-348h-215z" />
<glyph unicode="&#x25fc;" horiz-adv-x="1034" d="M0 0v1034h1034v-1034h-1034z" />
</font>
</defs>
</svg>
