<?xml version="1.0" standalone="no"?>
<!DOCTYPE svg PUBLIC "-//W3C//DTD SVG 1.1//EN" "http://www.w3.org/Graphics/SVG/1.1/DTD/svg11.dtd" >
<svg xmlns="http://www.w3.org/2000/svg">
<metadata></metadata>
<defs>
<font id="curse_casual_jveregular" horiz-adv-x="332" >
<font-face units-per-em="2048" ascent="1638" descent="-410" />
<missing-glyph horiz-adv-x="201" />
<glyph horiz-adv-x="0" />
<glyph horiz-adv-x="682" />
<glyph unicode=" "  horiz-adv-x="201" />
<glyph unicode="&#x09;" horiz-adv-x="201" />
<glyph unicode="&#xa0;" horiz-adv-x="201" />
<glyph unicode="!" d="M30 111q0 55 39.5 94t96.5 39t96.5 -39t39.5 -94q0 -54 -39.5 -93.5t-96.5 -39.5t-96.5 39.5t-39.5 93.5zM46 1319l212 4l-4 -1000h-180z" />
<glyph unicode="&#x22;" horiz-adv-x="632" d="M30 1226q0 54 39.5 93.5t96.5 39.5t96.5 -39.5t39.5 -93.5q0 -82 -33.5 -167t-139.5 -154l-67 81q54 55 76 107q-29 0 -68.5 39.5t-39.5 93.5zM330 1226q0 54 39.5 93.5t96.5 39.5t96.5 -39.5t39.5 -93.5q0 -82 -33.5 -167t-139.5 -154l-67 81q54 55 76 107 q-29 0 -68.5 39.5t-39.5 93.5z" />
<glyph unicode="#" horiz-adv-x="731" d="M30 310l12 190h70l17 300h-70l12 190h70l11 210h190l-11 -210h110l11 210h190l-11 -210h70l-12 -190h-70l-17 -300h70l-12 -190h-70l-12 -210h-190l12 210h-110l-12 -210h-190l12 210h-70zM302 500h110l17 300h-110z" />
<glyph unicode="$" horiz-adv-x="707" d="M39 386v26l192 -1q8 -223 108 -233q14 -1 27 -1q75 0 90 49q6 20 6 43q0 43 -21 95q-33 79 -181 180.5t-188 260.5q-17 68 -17 135q0 87 29 170q52 147 206 214l-2 176h144l-4 -176q159 -56 203 -167q39 -100 39 -300q0 -23 -1 -47l-211 9v16q0 238 -60 257q-18 6 -34 6 q-39 0 -64 -34q-30 -39 -30 -129q0 -19 1 -41q8 -122 198 -251t199 -365v-16q0 -224 -247 -297l2 -175l-141 1l7 173q-250 52 -250 422z" />
<glyph unicode="%" horiz-adv-x="1366" d="M37 958q0 45 6 95q12 107 59 177.5t127 94.5q44 13 90 13q36 0 74 -8q84 -19 122 -69t52.5 -133t14.5 -172q0 -90 -17 -180.5t-75 -136t-152 -47.5h-12q-86 0 -138 30q-56 31 -92.5 91t-50.5 147q-8 46 -8 98zM220 967q0 -43 4 -86q6 -65 47 -92q25 -17 51 -17q16 0 32 7 q43 16 50 70q5 42 5 80v22q-2 47 -5.5 90.5t-18.5 67.5t-44 31q-13 2 -24 2q-16 0 -30 -4q-26 -9 -44.5 -36t-21.5 -91q-1 -22 -1 -44zM440 -16l338 1392l182 -55l-340 -1391zM801 369q0 45 5 93q12 107 58.5 177.5t124.5 94.5q44 13 89 13q35 0 72 -8q83 -19 120.5 -69 t51.5 -133t14 -172q0 -90 -16.5 -180.5t-74 -136t-149.5 -47.5h-11q-85 0 -136 30q-54 31 -90 91t-50 147q-8 47 -8 100zM980 372q0 -41 4 -82q6 -65 46 -92q25 -17 51 -17q15 0 32 7q42 16 49 70q4 41 4 79v23q-2 47 -5.5 90.5t-18 67.5t-42.5 31q-13 2 -25 2q-15 0 -29 -4 q-25 -9 -43 -36t-21 -91q-2 -24 -2 -48z" />
<glyph unicode="&#x26;" horiz-adv-x="734" d="M40 362q0 54 8 118q17 146 132 193q-100 37 -123 171q-11 66 -11 126q0 64 12 123q24 114 92.5 173.5t195.5 61.5h3q125 0 221 -92q90 -85 90 -286q0 -19 -1 -38l-204 -15q-2 110 -27 168q-21 48 -66 48q-10 0 -21 -2q-62 -13 -78 -87q-9 -38 -9 -79q0 -40 8 -83 q16 -88 188 -122l-1 -152q-157 -19 -184 -104q-15 -47 -15 -99q0 -42 10 -86q21 -100 83 -107q7 -1 13 -1q51 0 77 47q23 43 23 215q0 36 -1 78l249 -7l-1 -187l-49 -4q-5 -183 -63.5 -256.5t-149.5 -90.5q-50 -10 -96 -10q-38 0 -73 7q-78 14 -137.5 85.5t-81.5 168.5 q-13 55 -13 125z" />
<glyph unicode="'" d="M30 1226q0 54 39.5 93.5t96.5 39.5t96.5 -39.5t39.5 -93.5q0 -82 -33.5 -167t-139.5 -154l-67 81q54 55 76 107q-29 0 -68.5 39.5t-39.5 93.5z" />
<glyph unicode="(" horiz-adv-x="517" d="M39 651q0 135 7 283q16 323 78 423.5t145 129.5q79 28 207 28h9l2 -218q-19 1 -36 1q-62 0 -90 -14q-37 -19 -62.5 -88t-29.5 -328q-1 -87 -1 -169q0 -162 5 -305q8 -214 23 -281t53 -103q32 -33 109 -33q11 0 22 1l2 -201h-20q-158 0 -226 47q-72 50 -120 159t-67 368 q-10 141 -10 300z" />
<glyph unicode=")" horiz-adv-x="517" d="M30 1297l2 218h9q128 0 208 -28q82 -29 144 -129.5t78 -423.5q7 -148 7 -283q0 -159 -10 -300q-19 -259 -67 -368t-120 -159q-68 -47 -226 -47h-19l2 201q11 -1 22 -1q76 0 109 33q37 36 52 103t23 281q5 143 5 305q0 82 -1 169q-4 259 -29.5 328t-61.5 88q-29 14 -91 14 q-17 0 -36 -1z" />
<glyph unicode="*" horiz-adv-x="483" d="M30 1116l41 138l109 -71l-13 145l127 4l-11 -150l123 66l47 -125l-129 -48l101 -117l-99 -79l-89 134l-64 -132l-109 78l89 120z" />
<glyph unicode="+" horiz-adv-x="750" d="M30 620v190h250v250h190v-250h250v-190h-250v-250h-190v250h-250z" />
<glyph unicode="," d="M30 126q0 54 39.5 93.5t96.5 39.5t96.5 -39.5t39.5 -93.5q0 -82 -33.5 -167t-139.5 -154l-67 81q54 55 76 107q-29 0 -68.5 39.5t-39.5 93.5z" />
<glyph unicode="-" horiz-adv-x="486" d="M30 705l415 10l11 -213l-415 -10z" />
<glyph unicode="." d="M30 126q0 54 39.5 93.5t96.5 39.5t96.5 -39.5t39.5 -93.5t-39.5 -93.5t-96.5 -39.5t-96.5 39.5t-39.5 93.5z" />
<glyph unicode="/" horiz-adv-x="660" d="M30 -156l418 1662l182 -55l-420 -1661z" />
<glyph unicode="0" horiz-adv-x="780" d="M39 643q0 88 7 191q16 223 78 323.5t165 136.5q59 21 121 21q46 0 93 -11q110 -27 160 -118t63.5 -243t18.5 -316q1 -30 1 -61q0 -134 -18 -268q-22 -166 -98 -242t-199 -79h-14q-113 0 -181 47q-72 50 -120 159t-67 268q-10 86 -10 192zM268 666q0 -96 5 -172 q8 -114 28 -186t48 -103q25 -30 60 -30q3 0 6 1q38 2 68 51t40 162q7 89 7 182v49q-3 117 -8.5 225.5t-26 169.5t-60.5 77q-17 6 -33 6q-22 0 -42 -12q-36 -21 -61.5 -90t-29.5 -228q-1 -54 -1 -102z" />
<glyph unicode="1" horiz-adv-x="464" d="M30 1105l199 208h196l9 -1335l-220 15l-1 1035l-91 -85z" />
<glyph unicode="2" horiz-adv-x="708" d="M39 884q0 183 40 283q44 111 157 139q51 13 103 13q61 0 122 -18q112 -34 165 -181q29 -83 29 -166q0 -65 -17 -129q-41 -148 -183.5 -309t-175.5 -301l378 7l3 -230l-618 6q-1 21 -1 42q0 334 184 521q195 199 203 332q2 27 2 50q0 93 -25 132q-23 34 -60 34 q-16 0 -34 -6q-60 -20 -60 -259v-16l-211 13q-1 22 -1 43z" />
<glyph unicode="3" horiz-adv-x="698" d="M39 461l216 9q2 -170 22 -223q18 -50 73 -50h7q60 3 82 103q9 44 9 86q0 51 -14 98q-27 85 -185 104l-1 152q173 34 189 122q7 43 7 82q0 42 -8 80q-17 74 -79 87q-11 2 -21 2q-45 0 -66 -48q-18 -43 -18 -146q0 -37 2 -82l-204 15q-3 49 -3 93q0 214 81 291 q96 92 221 92h4q126 -2 194.5 -61.5t92.5 -173.5q12 -59 12 -123q0 -60 -11 -126q-23 -134 -122 -171q115 -47 132 -192q9 -73 9 -134q0 -60 -9 -109q-17 -97 -76.5 -169t-142.5 -86q-38 -7 -77 -7q-46 0 -92 10q-86 17 -150 100.5t-74 374.5z" />
<glyph unicode="4" horiz-adv-x="747" d="M30 292l4 208l376 817l193 -9l4 -800l110 4v-215h-119v-295l-187 -11l-6 297zM254 508l158 4v393z" />
<glyph unicode="5" horiz-adv-x="701" d="M43 380q0 30 2 62l194 20q2 -237 69 -259q33 -12 57 -12t39 12q30 22 44 84q12 51 12 148q0 21 -1 44q-3 129 -49 189q-37 47 -83 47q-11 0 -22 -2q-60 -15 -74 -123l-185 2l3 729l549 5l4 -226l-348 -5l-7 -236q57 72 148 72q8 0 17 -1q102 -7 181 -123q74 -111 74 -338 v-26q-5 -248 -70.5 -347t-197.5 -116q-20 -3 -39 -3q-111 0 -211 83q-106 86 -106 320z" />
<glyph unicode="6" horiz-adv-x="739" d="M30 637q0 375 83 533q79 150 255 150q303 0 303 -367q0 -47 -5 -99l-198 -7q1 19 1 36q0 207 -98 207q-76 -18 -95.5 -98.5t-21.5 -240.5q34 43 147 43q140 0 213 -114q67 -102 67 -291q0 -436 -320 -436q-172 0 -251 155q-80 160 -80 529zM262 468q0 -155 20 -222 q23 -79 86 -79q6 0 14 1q74 9 74 215q0 207 -110 207q-58 0 -82 -28q-2 -50 -2 -94z" />
<glyph unicode="7" horiz-adv-x="653" d="M30 1320l589 6l4 -208l-277 -1161l-222 37l285 1107l-376 -13z" />
<glyph unicode="8" horiz-adv-x="708" d="M30 333q0 212 149 313q-130 118 -130 324q0 351 309 351q308 0 308 -348q0 -114 -42 -197q-39 -74 -103 -122q156 -105 156 -316v-4q0 -177 -87 -268q-83 -88 -229 -88q-331 0 -331 355zM247 338q0 -148 120 -148q115 0 115 132q0 145 -125 213q-110 -66 -110 -197z M253 964q0 -132 116 -203q95 71 95 196q0 148 -104 148q-107 0 -107 -141z" />
<glyph unicode="9" horiz-adv-x="739" d="M58 884q0 436 320 436q172 0 251 -155q80 -160 80 -529q0 -375 -83 -533q-79 -150 -255 -150q-303 0 -303 399q0 50 5 107l113 -13l96 -10q-3 -36 -3 -66q0 -188 100 -188q75 0 88 64q16 76 18 276q-34 -43 -146 -43q-142 0 -215 114q-66 102 -66 291zM283 880 q0 -207 110 -207q68 0 92 28q-3 240 -20 330q-14 74 -84 74q-98 0 -98 -225z" />
<glyph unicode=":" d="M30 126q0 54 39.5 93.5t96.5 39.5t96.5 -39.5t39.5 -93.5t-39.5 -93.5t-96.5 -39.5t-96.5 39.5t-39.5 93.5zM30 776q0 54 39.5 93.5t96.5 39.5t96.5 -39.5t39.5 -93.5t-39.5 -93.5t-96.5 -39.5t-96.5 39.5t-39.5 93.5z" />
<glyph unicode=";" d="M30 126q0 54 39.5 93.5t96.5 39.5t96.5 -39.5t39.5 -93.5q0 -82 -33.5 -167t-139.5 -154l-67 81q54 55 76 107q-29 0 -68.5 39.5t-39.5 93.5zM30 776q0 54 39.5 93.5t96.5 39.5t96.5 -39.5t39.5 -93.5t-39.5 -93.5t-96.5 -39.5t-96.5 39.5t-39.5 93.5z" />
<glyph unicode="&#x3c;" horiz-adv-x="623" d="M30 566v141l496 363l67 -177l-365 -255l361 -225l-63 -180z" />
<glyph unicode="=" horiz-adv-x="486" d="M30 955l415 10l11 -213l-415 -10zM33 561l415 -1l5 -214l-415 1z" />
<glyph unicode="&#x3e;" horiz-adv-x="623" d="M30 893l67 177l496 -363v-141l-496 -333l-63 180l361 225z" />
<glyph unicode="?" horiz-adv-x="694" d="M47 945q0 214 81 291q96 92 221 92h4q126 -2 194.5 -61.5t92.5 -173.5q12 -59 12 -125q0 -64 -11 -134q-23 -144 -208 -225l2 -258l-186 -1l-1 390q173 34 189 122q7 43 7 82q0 42 -8 80q-17 74 -79 87q-11 2 -21 2q-45 0 -66 -48q-18 -43 -18 -146q0 -37 2 -82l-204 15 q-3 49 -3 93zM207 126q0 54 39.5 93.5t96.5 39.5t96.5 -39.5t39.5 -93.5t-39.5 -93.5t-96.5 -39.5t-96.5 39.5t-39.5 93.5z" />
<glyph unicode="@" horiz-adv-x="1598" d="M30 522q0 167 43 318.5t126 279.5q122 183 293 278t381 95q139 0 262.5 -46.5t212.5 -132.5q110 -104 165 -241.5t55 -308.5q0 -166 -54 -310t-154 -243q-58 -57 -127.5 -87.5t-143.5 -30.5q-94 0 -141.5 46.5t-47.5 59.5q-8 -17 -72 -60.5t-154 -43.5 q-132 0 -202.5 93.5t-70.5 262.5q0 239 116.5 408t284.5 169q78 0 131.5 -37.5t69.5 -73.5l31 76h162l-124 -610q-1 -4 -2 -10q-4 -27 -4 -35q0 -30 15.5 -47t41.5 -17q36 0 77.5 27.5t79.5 79.5q56 74 85.5 171.5t29.5 209.5q0 245 -145 397t-381 152q-108 0 -200.5 -30 t-168.5 -91q-143 -109 -220 -283t-77 -387q0 -304 163.5 -485t437.5 -181q130 0 254.5 48t248.5 155l73 -135q-134 -127 -274.5 -185t-295.5 -58q-159 0 -291 49t-234 147q-128 120 -191.5 281.5t-63.5 365.5zM590 444q0 -92 32 -138t89 -46q64 0 118.5 61.5t74.5 161.5 l44 224q-11 76 -44.5 116t-84.5 40q-91 0 -160 -121.5t-69 -297.5z" />
<glyph unicode="A" horiz-adv-x="807" d="M30 -7l213 1311l236 9l298 -1351l-202 1l-74 325l-229 -6l-44 -289h-198zM302 484l162 7l-88 451z" />
<glyph unicode="B" horiz-adv-x="737" d="M30 1302q71 7 134 7q205 0 320 -80q149 -105 161 -239q3 -34 3 -66q0 -93 -26 -165q-36 -96 -134 -130q158 -40 189 -244q5 -34 5 -66q0 -156 -127 -248q-104 -75 -303 -75q-92 0 -204 16zM249 1081l4 -345q105 7 150 81q26 42 26 92q0 35 -13 75q-33 93 -167 97z M254 528l4 -320q15 -1 28 -1q131 0 167 79q17 36 17 70q0 48 -33 92q-56 76 -183 80z" />
<glyph unicode="C" horiz-adv-x="753" d="M40 622q0 99 11 216q21 221 83 321t160 136q55 20 116 20q45 0 92 -11q111 -27 161 -117.5t58 -327.5h-215q-8 198 -51 231q-30 22 -58 22q-14 0 -27 -4q-41 -16 -73.5 -113t-37.5 -343q-1 -30 -1 -57q0 -202 33 -288q37 -99 107 -102h6q65 0 82 59q17 62 20 176h217 q-7 -298 -88 -374t-204 -79h-14q-113 0 -181 47q-72 49 -120 157.5t-67 266.5q-9 75 -9 164z" />
<glyph unicode="D" horiz-adv-x="722" d="M30 1306q53 4 101 4q211 0 329 -68q144 -83 188 -233.5t44 -376.5q0 -227 -55 -390t-188 -217q-94 -39 -259 -39q-69 0 -151 7zM235 1077l4 -875h10q94 0 142 54q49 57 62.5 145.5t13.5 242.5q0 153 -15 247.5t-72.5 138.5t-144.5 47z" />
<glyph unicode="E" horiz-adv-x="554" d="M30 -17v1327h494v-203l-283 -8v-358l222 9l6 -205l-223 -13l-4 -330l257 8l17 -219z" />
<glyph unicode="F" horiz-adv-x="554" d="M30 -17v1327h494v-203l-283 -8v-358l222 9l6 -205l-223 -13l-4 -545z" />
<glyph unicode="G" horiz-adv-x="751" d="M40 615q0 99 11 216q21 222 83 322t160 136q56 21 116 21q45 0 92 -11q111 -27 161 -118t58 -329h-215q-8 199 -51 232q-30 22 -58 22q-14 0 -27 -4q-41 -16 -73.5 -113.5t-37.5 -344.5q-1 -30 -1 -57q0 -203 33 -290q37 -99 107 -101q3 -1 5 -1q66 0 83 60q17 62 20 202 l-161 7l-3 188l373 2v-11q0 -436 -79 -549q-81 -114 -204 -117h-15q-113 0 -181 47q-72 49 -120 158t-67 268q-9 75 -9 165z" />
<glyph unicode="H" horiz-adv-x="670" d="M30 -17v1326h204l10 -564l177 2l-8 572l220 -3l7 -1328l-216 3l-1 543l-177 -4l-4 -543z" />
<glyph unicode="I" horiz-adv-x="272" d="M30 -8v1327l211 -5l1 -1339z" />
<glyph unicode="J" horiz-adv-x="522" d="M30 10l13 202q82 -26 132 -26q33 0 53 11q51 27 51 130l-9 982l207 -1q4 -284 4 -499q0 -560 -28 -653q-39 -129 -160 -159q-50 -12 -104 -12q-76 0 -159 25z" />
<glyph unicode="K" horiz-adv-x="746" d="M30 1314l210 -6l-4 -560l237 593l213 -65l-268 -626l298 -608l-200 -90l-233 500l-37 -69l3 -400l-207 3z" />
<glyph unicode="L" horiz-adv-x="595" d="M30 -8v1317l211 5l1 -1114l318 8l5 -217z" />
<glyph unicode="M" horiz-adv-x="983" d="M30 -13l13 1321l233 3l201 -762l174 766h266l36 -1319h-231l-4 668l-143 -491l-198 -9l-128 480l-6 -661z" />
<glyph unicode="N" horiz-adv-x="728" d="M30 1315l192 1l250 -720l6 725l220 1v-1344l-211 -7l-234 643l-5 -627l-208 -4z" />
<glyph unicode="O" horiz-adv-x="780" d="M39 643q0 88 7 191q16 223 78 323.5t165 136.5q59 21 121 21q46 0 93 -11q110 -27 160 -118t63.5 -243t18.5 -316q1 -30 1 -61q0 -134 -18 -268q-22 -166 -98 -242t-199 -79h-14q-113 0 -181 47q-72 50 -120 159t-67 268q-10 86 -10 192zM268 666q0 -96 5 -172 q8 -114 28 -186t48 -103q25 -30 60 -30q3 0 6 1q38 2 68 51t40 162q7 89 7 182v49q-3 117 -8.5 225.5t-26 169.5t-60.5 77q-17 6 -33 6q-22 0 -42 -12q-36 -21 -61.5 -90t-29.5 -228q-1 -54 -1 -102z" />
<glyph unicode="P" horiz-adv-x="735" d="M30 1302q81 8 151 8q294 0 397 -141q79 -110 79 -256q0 -87 -28 -186q-76 -267 -376 -277l2 -468l-212 15zM251 1101l4 -443h2q122 0 163 124q21 65 21 122q0 52 -18 98q-38 95 -172 99z" />
<glyph unicode="Q" horiz-adv-x="780" d="M39 632q0 89 7 193q16 225 78 326.5t165 137.5q59 21 121 21q46 0 93 -11q110 -27 160 -119t63.5 -245t18.5 -319q1 -31 1 -61q0 -136 -18 -271q-22 -167 -111 -260l128 -196l-173 -116l-150 248h-9q-108 0 -177 48q-72 50 -120 160t-67 271q-10 87 -10 193zM268 666 q0 -96 5 -172q8 -114 28 -186t48 -103q25 -30 60 -30q3 0 6 1q38 2 68 51t40 162q7 89 7 182v49q-3 117 -8.5 225.5t-26 169.5t-60.5 77q-17 6 -33 6q-22 0 -42 -12q-36 -21 -61.5 -90t-29.5 -228q-1 -54 -1 -102z" />
<glyph unicode="R" horiz-adv-x="754" d="M30 1301q82 8 153 8q292 0 395 -141q93 -131 93 -273q0 -51 -11 -103q-46 -199 -186 -270l250 -471l-205 -99l-239 505l-27 -6l2 -471l-212 15zM251 1100l4 -444q124 0 165 125q21 65 21 122q0 52 -18 98q-38 95 -172 99z" />
<glyph unicode="S" horiz-adv-x="707" d="M39 378v34l192 -1q8 -223 108 -233q14 -1 27 -1q75 0 90 49q6 20 6 43q0 43 -21 95q-33 79 -181 180.5t-188 260.5q-17 68 -17 135q0 87 29 170q52 147 164 181q61 18 123 18q51 0 103 -13q113 -28 157 -139q39 -100 39 -300q0 -23 -1 -47l-211 9v16q0 238 -60 257 q-18 6 -34 6q-39 0 -64 -34q-30 -39 -30 -129q0 -19 1 -41q8 -122 198 -251t199 -350v-23q0 -202 -155 -259q-77 -29 -152 -29q-87 0 -171 37q-151 65 -151 359z" />
<glyph unicode="T" horiz-adv-x="684" d="M30 1098v211h624v-212l-197 3v-1102l-214 -12l-6 1112h-207z" />
<glyph unicode="U" horiz-adv-x="736" d="M30 1319l229 -9q1 -745 7 -832t25.5 -169.5t67.5 -96.5q11 -3 21 -3q34 0 56 35q28 46 38 156q5 67 5 239q0 109 -2 260q-6 389 -8 411l227 9l10 -1338l-194 1l-8 99q-58 -82 -136 -89q-11 -2 -22 -2q-66 0 -123 40q-68 45 -116 155t-62.5 232.5t-14.5 901.5z" />
<glyph unicode="V" horiz-adv-x="796" d="M30 1319l229 17l154 -998l121 990l232 -12l-204 -1329l-292 -1z" />
<glyph unicode="W" horiz-adv-x="1216" d="M30 1307l231 21l115 -887l125 723l220 8l133 -739l88 908l244 -15l-179 -1356l-272 16l-121 656l-113 -659l-265 -21z" />
<glyph unicode="X" horiz-adv-x="807" d="M30 1325l218 14l153 -484l139 499l237 -30l-233 -688l214 -630l-217 -22l-134 434l-118 -445l-217 24l195 651z" />
<glyph unicode="Y" horiz-adv-x="760" d="M30 1313l221 28l134 -589l115 583l230 -11l-225 -866l4 -466l-219 -9l-10 478z" />
<glyph unicode="Z" horiz-adv-x="623" d="M30 185l323 901l-273 2l-10 229l514 -8l9 -186l-335 -919l317 -1l14 -229l-544 13z" />
<glyph unicode="[" horiz-adv-x="383" d="M30 -203v1703l319 -4l3 -169l-131 4l-3 -1359h132l3 -184z" />
<glyph unicode="\" horiz-adv-x="660" d="M30 1451l182 55l418 -1662l-180 -54z" />
<glyph unicode="]" horiz-adv-x="383" d="M30 1500l323 -9v-1703l-319 4l-3 169l131 -4l3 1359h-132z" />
<glyph unicode="`" horiz-adv-x="317" d="M30 1249l182 71l75 -236l-123 -62z" />
<glyph unicode="a" horiz-adv-x="680" d="M31 259q0 102 67 188q68 88 184 99q22 2 42 2q80 0 106 -36q1 22 1 41q0 156 -79 165h-10q-80 0 -99 -147l-183 42q26 192 133 253q78 45 164 45q30 0 61 -5q119 -22 176 -155q36 -86 36 -400q0 -172 -11 -413l-194 4v109q-64 -70 -147 -70q-20 0 -41 4 q-109 21 -156.5 92.5t-48.5 176.5q-1 2 -1 5zM226 260q0 -7 1 -14q5 -77 72 -86q6 -1 12 -1q60 0 118 76v91q-63 49 -109 49q-24 0 -43 -13q-51 -36 -51 -102z" />
<glyph unicode="b" horiz-adv-x="656" d="M30 -30l12 1347l190 -4l-5 -437q13 19 70 37q25 7 54 7q37 0 81 -12q78 -22 136 -129q49 -91 49 -279q0 -32 -1 -67q-10 -240 -85.5 -336.5t-168.5 -101.5h-16q-82 0 -129 46v-66zM224 223q51 -31 88 -31q30 0 52 21q48 46 52 266v21q0 199 -72 215q-16 3 -30 3 q-55 0 -90 -51v-444z" />
<glyph unicode="c" horiz-adv-x="666" d="M37 431q0 56 7 118q13 134 65.5 223t140.5 119q49 17 100 17q40 0 82 -10q93 -24 135.5 -87t58.5 -166q6 -39 10 -87l-192 -18v15q-4 64 -19.5 99t-45.5 44q-13 4 -25 4q-17 0 -33 -7q-27 -13 -46.5 -52.5t-22.5 -134.5q-2 -34 -2 -67q0 -62 5 -124q6 -96 49 -136 q27 -25 54 -25q17 0 35 10q45 24 52 102q1 17 3 43l188 -13q-5 -54 -12 -98q-20 -115 -84.5 -173t-168.5 -60h-10q-98 0 -156 38q-62 39 -102.5 114.5t-56.5 185.5q-9 59 -9 126z" />
<glyph unicode="d" horiz-adv-x="656" d="M39 500q0 188 49 279q58 107 137 129q43 12 80 12q29 0 55 -7q56 -18 70 -37l-6 437l190 4l12 -1347l-187 5v66q-47 -46 -129 -46h-16q-93 5 -168.5 101.5t-85.5 336.5q-1 35 -1 67zM240 479q4 -220 52 -266q22 -21 52 -21q37 0 88 31v444q-33 51 -89 51q-14 0 -30 -3 q-73 -16 -73 -215v-21z" />
<glyph unicode="e" horiz-adv-x="671" d="M41 395q0 120 26 242q36 177 142 235q71 38 140 38q32 0 65 -8q99 -28 163 -126q63 -97 63 -397v-9l-395 -6q-3 -25 -3 -47q0 -52 17 -91q25 -58 102 -62q2 -1 5 -1q72 0 81 133l186 -19q-17 -194 -84 -251q-65 -56 -182 -56q-3 0 -6 1q-121 1 -209.5 72.5t-104.5 244.5 q-6 53 -6 107zM259 522l180 2q1 14 1 28q0 95 -37 139q-27 31 -55 31q-16 0 -33 -11q-46 -30 -56 -189z" />
<glyph unicode="f" horiz-adv-x="509" d="M30 719l1 190l111 3v36q0 91 9 156q10 77 39 133t113 78q39 11 82 11q45 0 94 -13l-13 -208q-48 21 -70 22h-2q-21 0 -38 -25q-17 -24 -17 -162v-31l120 5l4 -186l-126 -8l-7 -728l-197 -14l7 736z" />
<glyph unicode="g" horiz-adv-x="686" d="M39 407q0 32 1 68q10 239 85.5 335.5t168.5 101.5h15q83 0 134 -51l15 101l178 5q7 -317 7 -546q0 -471 -28 -575q-41 -156 -190 -197q-63 -18 -123 -18q-85 0 -165 34l18 195q73 -30 135 -30q10 0 20 1q69 5 106 54q32 43 32 130q0 12 -1 25q-25 -28 -84 -45 q-27 -8 -57 -8q-38 0 -81 12q-79 22 -137 129q-49 91 -49 279zM240 408q0 -190 73 -210q19 -6 37 -6q53 0 92 49v443q-46 24 -82 24t-62 -23q-54 -48 -58 -257v-20z" />
<glyph unicode="h" horiz-adv-x="636" d="M30 1318h200l2 -472q44 67 130 67h14q96 -6 151 -76t67 -173q9 -77 9 -416q0 -113 -1 -255l-201 5q8 272 8 430q0 167 -9 207q-18 76 -67 76h-1q-51 -1 -92 -75l-2 -674l-202 -4z" />
<glyph unicode="i" d="M30 1120q0 54 39.5 93.5t96.5 39.5t96.5 -39.5t39.5 -93.5t-39.5 -93.5t-96.5 -39.5t-96.5 39.5t-39.5 93.5zM68 908h200l8 -926l-202 -4z" />
<glyph unicode="j" horiz-adv-x="415" d="M30 -154h14q45 0 67 11q50 27 51 130l-9 922l207 -1q4 -257 4 -454q0 -543 -28 -638q-39 -129 -163 -160q-48 -12 -106 -12q-18 0 -37 1v201zM113 1120q0 54 39.5 93.5t96.5 39.5t96.5 -39.5t39.5 -93.5t-39.5 -93.5t-96.5 -39.5t-96.5 39.5t-39.5 93.5z" />
<glyph unicode="k" horiz-adv-x="688" d="M30 1324l200 -6l-4 -772l238 417l192 -49l-228 -399l230 -520l-204 -30l-153 370l-65 -99l3 -251l-197 3z" />
<glyph unicode="l" horiz-adv-x="268" d="M30 -23l8 1337l200 4l-11 -1322z" />
<glyph unicode="m" horiz-adv-x="975" d="M30 -14v944l182 -2l2 -88q40 58 110 66q16 2 31 2q48 0 82 -19q43 -26 74 -82q63 72 126 88q39 9 78 9q23 0 47 -3q62 -10 109.5 -65t57 -142t16.5 -703l-201 -5q4 232 4 382q0 246 -11 273q-18 42 -54 47q-10 1 -18 1q-24 0 -40 -11q-22 -15 -27 -57q-4 -30 -4 -289 q0 -103 1 -243h-206q9 255 9 394q0 143 -9 165q-19 41 -49 52q-14 4 -27 4q-15 0 -29 -6q-26 -13 -53 -62l-5 -647z" />
<glyph unicode="n" horiz-adv-x="630" d="M30 -12l4 960h180l2 -107q54 72 141 72h13q96 -6 151 -76t67 -173q9 -77 9 -439q0 -120 -1 -272l-201 5q8 291 8 459q0 178 -9 218q-18 76 -67 76h-1q-51 -1 -92 -75l-2 -644z" />
<glyph unicode="o" horiz-adv-x="672" d="M37 461q0 56 7 118q13 134 65.5 223t140.5 119q49 17 100 17q40 0 82 -10q93 -24 135.5 -87t58.5 -167.5t16 -217.5t-19 -227t-83.5 -172t-168.5 -60h-10q-98 0 -156 38q-62 39 -102.5 114.5t-56.5 185.5q-9 59 -9 126zM250 471q0 -62 5 -124q6 -96 49 -136 q27 -25 54 -25q17 0 35 10q45 24 52 104q5 61 5 118v32q-2 70 -6 134.5t-19.5 99.5t-45.5 44q-13 4 -25 4q-17 0 -33 -7q-27 -13 -46.5 -52.5t-22.5 -134.5q-2 -34 -2 -67z" />
<glyph unicode="p" horiz-adv-x="656" d="M30 927l187 -5v-71q47 61 132 61h13q93 -5 168.5 -101.5t85.5 -336.5q1 -35 1 -67q0 -187 -49 -270q-58 -97 -136 -118q-51 -14 -92 -14q-23 0 -43 4q-56 12 -71 29l-4 -394l-190 -4zM224 240q34 -51 92 -51q15 0 33 4q81 17 82 236v8q0 212 -52 258q-24 21 -57 21 q-42 0 -98 -32v-444z" />
<glyph unicode="q" horiz-adv-x="656" d="M39 407q0 32 1 68q10 239 85.5 335.5t168.5 101.5h16q82 0 129 -46v96l187 5l-12 -1327l-190 4l6 387q-14 -19 -70 -36q-26 -8 -55 -8q-37 0 -80 12q-79 22 -137 129q-49 91 -49 279zM240 407q0 -199 73 -214q16 -4 30 -4q56 0 89 51v444q-51 31 -88 31q-30 0 -52 -20 q-48 -47 -52 -266v-22z" />
<glyph unicode="r" horiz-adv-x="497" d="M30 -12l4 960h180l2 -107q56 75 234 75h14l3 -203q-191 -3 -233 -106l-2 -615z" />
<glyph unicode="s" horiz-adv-x="598" d="M30 298l181 13q0 -123 44 -146q27 -15 49 -15q15 0 27 6q32 15 32 86q0 70 -123 134t-164 140q-33 61 -33 135q0 19 3 39q10 97 72.5 159t171.5 70h25q93 0 164 -48q81 -56 89 -251l-176 -17q-1 128 -57 138q-11 1 -21 1q-41 0 -62 -33q-17 -26 -17 -56q0 -16 6 -33 q14 -49 133 -115.5t154 -129.5q31 -59 31 -130v-12q-3 -79 -47.5 -150t-119.5 -93q-42 -13 -89 -13q-37 0 -77 8q-91 17 -137.5 79t-58.5 234z" />
<glyph unicode="t" horiz-adv-x="481" d="M30 717l7 195h109l2 403l193 7v-412l110 5v-198h-110l-6 -718l-196 -16l5 732z" />
<glyph unicode="u" horiz-adv-x="630" d="M33 676q0 120 1 272l201 -5q-8 -291 -8 -459q0 -178 9 -218q18 -76 67 -76h2q50 1 91 75l2 644l202 4l-4 -960h-180l-2 107q-54 -72 -141 -72h-13q-96 6 -151 76t-67 173q-9 77 -9 439z" />
<glyph unicode="v" horiz-adv-x="684" d="M30 909l191 7l131 -641l106 638l196 -14l-176 -909l-269 -4z" />
<glyph unicode="w" horiz-adv-x="1017" d="M30 902l192 25l88 -635l84 529l235 2l96 -524l61 614l201 -12l-129 -922l-258 8l-89 504l-81 -495l-250 -15z" />
<glyph unicode="x" horiz-adv-x="657" d="M30 898l204 33l98 -326l85 315l210 -22l-165 -462l159 -443l-193 -29l-91 287l-99 -282l-194 18l164 447z" />
<glyph unicode="y" horiz-adv-x="625" d="M30 949l194 -2q-3 -209 -3 -352q0 -256 9 -304q12 -75 68 -85q7 -2 14 -2q46 0 80 58v658l203 1l-7 -927q0 -201 -72.5 -272t-155.5 -84q-55 -9 -101 -9q-23 0 -44 2q-61 7 -145 46l47 193q122 -43 169 -43q3 0 5 1q45 2 74.5 26.5t39.5 62.5q8 32 8 108v32 q-42 -66 -118 -70q-14 -1 -27 -1q-58 0 -96 16q-48 20 -85.5 83t-47 184.5t-9.5 679.5z" />
<glyph unicode="z" horiz-adv-x="593" d="M30 179l309 554l-259 2l-10 203l484 -9l9 -197l-301 -554l283 -1l14 -203l-514 14z" />
<glyph unicode="{" horiz-adv-x="501" d="M30 563l3 149q122 12 125 109l-6 383q0 287 297 296l19 -173h-12q-110 0 -114 -126l7 -411q-3 -100 -108 -149q95 -42 101 -146l-3 -408q0 -118 132 -118l-11 -178q-298 12 -308 287v382q0 95 -122 103z" />
<glyph unicode="|" horiz-adv-x="260" d="M30 -200v1700h200v-1700h-200z" />
<glyph unicode="}" horiz-adv-x="501" d="M30 1322l11 178q298 -12 308 -287v-370q-1 -7 -1 -13q0 -94 123 -102l-4 -149q-122 -12 -124 -109l6 -383q0 -287 -297 -296l-20 173h12q111 0 115 126l-7 411q3 100 108 149q-95 42 -101 146l3 408q0 118 -132 118z" />
<glyph unicode="&#xa1;" d="M30 796q0 54 39.5 93.5t96.5 39.5t96.5 -39.5t39.5 -93.5q0 -55 -39.5 -94t-96.5 -39t-96.5 39t-39.5 94zM74 -416l4 1000h180l28 -996z" />
<glyph unicode="&#xa2;" horiz-adv-x="666" d="M37 641q0 56 7 118q13 134 65.5 223t150.5 128l1 205l153 2l3 -215q108 -18 150.5 -81t58.5 -166q6 -39 10 -87l-192 -18v15q-4 64 -19.5 99t-45.5 44q-13 4 -25 4q-17 0 -33 -7q-27 -13 -46.5 -52.5t-22.5 -134.5q-2 -34 -2 -67q0 -62 5 -124q6 -96 49 -136 q27 -25 54 -25q17 0 35 10q45 24 52 102q1 17 3 43l188 -13q-5 -54 -12 -98q-20 -115 -189 -211v-209l-160 -3l1 208q-123 49 -168.5 129.5t-61.5 190.5q-9 59 -9 126z" />
<glyph unicode="&#xa3;" horiz-adv-x="719" d="M30 668l96 3v242q0 399 282 401h1q261 0 261 -410q0 -29 -1 -60l-191 -12q1 27 1 52q0 178 -51 197q-16 5 -29 5q-38 0 -58 -43q-21 -42 -21 -213q0 -71 4 -166l188 4l-4 -190l-181 -3l1 -268l311 6l13 -208l-614 -13l-5 204l91 7l-1 272h-85z" />
<glyph unicode="&#xa5;" horiz-adv-x="767" d="M30 1319l218 18l143 -599l106 596l240 -15l-164 -607l114 -3v-178l-163 1l-21 -67v-57l181 -1v-168h-175v-260l-218 -6l-9 260h-186l-3 175l198 3l-6 42l-24 76l-174 2v175l119 -3z" />
<glyph unicode="&#xa6;" horiz-adv-x="260" d="M30 -200v754l200 2v-756h-200zM30 752v748h200v-748h-200z" />
<glyph unicode="&#xa8;" horiz-adv-x="596" d="M30 1151q0 46 34 80.5t84 34.5q49 0 83.5 -34.5t34.5 -80.5q0 -47 -34.5 -81t-83.5 -34q-50 0 -84 34t-34 81zM330 1151q0 46 34 80.5t84 34.5q49 0 83.5 -34.5t34.5 -80.5q0 -47 -34.5 -81t-83.5 -34q-50 0 -84 34t-34 81z" />
<glyph unicode="&#xa9;" horiz-adv-x="860" d="M30 862q0 214 116.5 367t283.5 153t283.5 -153t116.5 -367q0 -213 -116.5 -366.5t-283.5 -153.5t-283.5 153.5t-116.5 366.5zM138 855q0 -168 86.5 -285t206.5 -117q119 0 205.5 117t86.5 285q0 169 -86.5 286t-205.5 117q-120 0 -206.5 -117t-86.5 -286zM254 835 q0 48 6 105q10 107 40.5 157t79.5 68q28 10 59 10q22 0 46 -6q56 -13 81 -58.5t29 -166.5h-115q-4 99 -23 113q-13 10 -25 10q-5 0 -10 -2q-17 -7 -32.5 -52.5t-17.5 -163.5q-1 -15 -1 -29q0 -96 16 -135q17 -46 47 -47h2q27 0 35 27q7 27 9 87h116q-3 -152 -44 -190 t-102 -39q-4 -1 -8 -1q-56 0 -90 24q-37 24 -60.5 77.5t-32.5 131.5q-5 36 -5 80z" />
<glyph unicode="&#xab;" horiz-adv-x="970" d="M30 645l306 472l191 -51l-266 -428l264 -398l-185 -54zM443 645l306 472l191 -51l-266 -428l264 -398l-185 -54z" />
<glyph unicode="&#xac;" horiz-adv-x="750" d="M30 620v190h690v-440h-190v250h-500z" />
<glyph unicode="&#xad;" horiz-adv-x="486" d="M30 705l415 10l11 -213l-415 -10z" />
<glyph unicode="&#xae;" horiz-adv-x="866" d="M30 859q0 215 117 369t286 154t286 -154t117 -369q0 -214 -117 -368.5t-286 -154.5t-286 154.5t-117 368.5zM140 852q0 -170 87 -287.5t207 -117.5q119 0 206.5 117.5t87.5 287.5t-87.5 287.5t-206.5 117.5q-120 0 -207 -117.5t-87 -287.5zM272 1178q43 4 80 4 q148 0 199 -70q46 -66 46 -137q0 -25 -5 -51q-23 -99 -89 -132l122 -229l-112 -54l-116 247l-3 -1l1 -231l-117 9zM393 1070l2 -206q48 0 67 59q10 30 10 56q0 25 -8 46q-18 43 -71 45z" />
<glyph unicode="&#xb0;" horiz-adv-x="580" d="M30 1050q0 108 76 184t184 76q107 0 183.5 -76t76.5 -184q0 -107 -76.5 -183.5t-183.5 -76.5q-108 0 -184 76.5t-76 183.5zM175 1046q0 -48 34 -81.5t82 -33.5t81.5 33.5t33.5 81.5t-33.5 82t-81.5 34t-82 -34t-34 -82z" />
<glyph unicode="&#xb1;" horiz-adv-x="750" d="M30 20v190h690v-190h-690zM30 620v190h250v250h190v-250h250v-190h-250v-250h-190v250h-250z" />
<glyph unicode="&#xb4;" horiz-adv-x="317" d="M30 1084l75 236l182 -71l-135 -227z" />
<glyph unicode="&#xb5;" horiz-adv-x="630" d="M30 913l202 -4l2 -644q41 -74 92 -75h1q49 0 67 76q9 40 9 218q0 168 -8 459l201 5q1 -152 1 -272q0 -362 -9 -439q-12 -103 -67 -173t-151 -76h-13q-87 0 -141 72l-2 -407h-180z" />
<glyph unicode="&#xb6;" horiz-adv-x="933" d="M30 1005q0 145 98 233t260 88h515v-158h-94v-1178h-185v1178h-79v-1178h-187v697q-143 6 -235.5 93.5t-92.5 224.5z" />
<glyph unicode="&#xb7;" horiz-adv-x="291" d="M29 572q0 46 34 79.5t82 33.5q49 0 82.5 -33.5t33.5 -79.5t-33.5 -79.5t-82.5 -33.5q-48 0 -82 33.5t-34 79.5z" />
<glyph unicode="&#xb8;" horiz-adv-x="484" d="M30 -317q0 31 14 55.5t33 24.5q7 0 27 -14q74 -54 147 -54q33 0 48 17t15 53q0 28 -14.5 43t-43.5 15q-8 0 -23 -1t-22 -1q-21 0 -32.5 16t-11.5 43q0 25 7 74t21 116h79q-4 -24 -7 -50q-6 -52 -6 -69q0 -8 4 -13t8 -5q3 0 13 1t16 1q68 0 110 -48.5t42 -125.5 q0 -82 -50 -128t-139 -46q-79 0 -157 31.5t-78 64.5z" />
<glyph unicode="&#xbb;" horiz-adv-x="970" d="M30 1066l191 51l306 -472l-310 -459l-185 54l264 398zM443 1066l191 51l306 -472l-310 -459l-185 54l264 398z" />
<glyph unicode="&#xbf;" horiz-adv-x="694" d="M42 -46q0 64 11 134q23 144 208 225l-2 258l186 1l1 -390q-173 -34 -189 -122q-7 -43 -7 -82q0 -42 8 -80q17 -74 79 -87q11 -2 21 -2q45 0 66 48q18 43 18 146q0 37 -2 82l204 -15q3 -49 3 -93q0 -214 -81 -291q-96 -92 -221 -92h-4q-126 2 -194.5 61.5t-92.5 173.5 q-12 59 -12 125zM215 796q0 54 39.5 93.5t96.5 39.5t96.5 -39.5t39.5 -93.5t-39.5 -93.5t-96.5 -39.5t-96.5 39.5t-39.5 93.5z" />
<glyph unicode="&#xc0;" horiz-adv-x="807" d="M30 -7l213 1311l236 9l298 -1351l-202 1l-74 325l-229 -6l-44 -289h-198zM190 1639l182 71l75 -236l-123 -62zM302 484l162 7l-88 451z" />
<glyph unicode="&#xc1;" horiz-adv-x="807" d="M30 -7l213 1311l236 9l298 -1351l-202 1l-74 325l-229 -6l-44 -289h-198zM260 1474l75 236l182 -71l-135 -227zM302 484l162 7l-88 451z" />
<glyph unicode="&#xc2;" horiz-adv-x="807" d="M30 -7l213 1311l236 9l298 -1351l-202 1l-74 325l-229 -6l-44 -289h-198zM134 1507l175 197l115 -4l168 -195l-88 -102l-141 137l-137 -132zM302 484l162 7l-88 451z" />
<glyph unicode="&#xc3;" horiz-adv-x="807" d="M30 -7l213 1311l236 9l298 -1351l-202 1l-74 325l-229 -6l-44 -289h-198zM148 1470q0 188 127 188q44 0 97 -39l35 -25q16 -10 27 -10q21 0 21 40q0 12 -2 27l32 2q31 1 88 8q6 -40 6 -74q0 -153 -125 -153q-40 0 -91 36l-36 21q-15 10 -26 10q-24 0 -24 -49q0 -7 1 -15 l-129 -4q-1 19 -1 37zM302 484l162 7l-88 451z" />
<glyph unicode="&#xc4;" horiz-adv-x="807" d="M30 -7l213 1311l236 9l298 -1351l-202 1l-74 325l-229 -6l-44 -289h-198zM86 1541q0 46 34 80.5t84 34.5q49 0 83.5 -34.5t34.5 -80.5q0 -47 -34.5 -81t-83.5 -34q-50 0 -84 34t-34 81zM302 484l162 7l-88 451zM386 1541q0 46 34 80.5t84 34.5q49 0 83.5 -34.5 t34.5 -80.5q0 -47 -34.5 -81t-83.5 -34q-50 0 -84 34t-34 81z" />
<glyph unicode="&#xc5;" horiz-adv-x="807" d="M30 -7l213 1311l236 9l298 -1351l-202 1l-74 325l-229 -6l-44 -289h-198zM213 1539q0 66 47 113t113 47t113 -47t47 -113t-47 -113t-113 -47t-113 47t-47 113zM302 484l162 7l-88 451zM308 1536q0 -27 19 -46t47 -19q27 0 46 19t19 46q0 28 -19 47t-46 19q-28 0 -47 -19 t-19 -47z" />
<glyph unicode="&#xc6;" horiz-adv-x="934" d="M30 -11l212 1323l662 3l-2 -208l-275 -12l-3 -352l220 9l17 -205l-234 -21l3 -326l250 6l17 -220l-479 -6v303l-150 -8l-44 -284zM300 485l124 6l-4 603l-20 -3z" />
<glyph unicode="&#xc7;" horiz-adv-x="753" d="M40 622q0 99 11 216q21 221 83 321t160 136q55 20 116 20q45 0 92 -11q111 -27 161 -117.5t58 -327.5h-215q-8 198 -51 231q-30 22 -58 22q-14 0 -27 -4q-41 -16 -73.5 -113t-37.5 -343q-1 -30 -1 -57q0 -202 33 -288q37 -99 107 -102h6q65 0 82 59q17 62 20 176h217 q-7 -298 -88 -374t-204 -79h-14q-113 0 -181 47q-72 49 -120 157.5t-67 266.5q-9 75 -9 164zM169 -317q0 31 14 55.5t33 24.5q7 0 27 -14q74 -54 147 -54q33 0 48 17t15 53q0 28 -14.5 43t-43.5 15q-8 0 -23 -1t-22 -1q-21 0 -32.5 16t-11.5 43q0 25 7 74t21 116h79 q-4 -24 -7 -50q-6 -52 -6 -69q0 -8 4 -13t8 -5q3 0 13 1t16 1q68 0 110 -48.5t42 -125.5q0 -82 -50 -128t-139 -46q-79 0 -157 31.5t-78 64.5z" />
<glyph unicode="&#xc8;" horiz-adv-x="554" d="M30 -17v1327h494v-203l-283 -8v-358l222 9l6 -205l-223 -13l-4 -330l257 8l17 -219zM113 1639l182 71l75 -236l-123 -62z" />
<glyph unicode="&#xc9;" horiz-adv-x="554" d="M30 -17v1327h494v-203l-283 -8v-358l222 9l6 -205l-223 -13l-4 -330l257 8l17 -219zM184 1474l75 236l182 -71l-135 -227z" />
<glyph unicode="&#xca;" horiz-adv-x="554" d="M30 -17v1327h494v-203l-283 -8v-358l222 9l6 -205l-223 -13l-4 -330l257 8l17 -219zM48 1507l175 197l115 -4l168 -195l-88 -102l-141 137l-137 -132z" />
<glyph unicode="&#xcb;" horiz-adv-x="596" d="M30 1541q0 46 34 80.5t84 34.5q49 0 83.5 -34.5t34.5 -80.5q0 -47 -34.5 -81t-83.5 -34q-50 0 -84 34t-34 81zM51 -17v1327h494v-203l-283 -8v-358l222 9l6 -205l-223 -13l-4 -330l257 8l17 -219zM330 1541q0 46 34 80.5t84 34.5q49 0 83.5 -34.5t34.5 -80.5 q0 -47 -34.5 -81t-83.5 -34q-50 0 -84 34t-34 81z" />
<glyph unicode="&#xcc;" horiz-adv-x="317" d="M30 1639l182 71l75 -236l-123 -62zM48 -8v1327l211 -5l1 -1339z" />
<glyph unicode="&#xcd;" horiz-adv-x="317" d="M30 1474l75 236l182 -71l-135 -227zM47 -8v1327l211 -5l1 -1339z" />
<glyph unicode="&#xce;" horiz-adv-x="334" d="M-77 1507l175 197l115 -4l168 -195l-88 -102l-141 137l-137 -132zM47 -8v1327l211 -5l1 -1339z" />
<glyph unicode="&#xcf;" horiz-adv-x="290" d="M-125 1541q0 46 34 80.5t84 34.5q49 0 83.5 -34.5t34.5 -80.5q0 -47 -34.5 -81t-83.5 -34q-50 0 -84 34t-34 81zM37 -8v1327l211 -5l1 -1339zM175 1541q0 46 34 80.5t84 34.5q49 0 83.5 -34.5t34.5 -80.5q0 -47 -34.5 -81t-83.5 -34q-50 0 -84 34t-34 81z" />
<glyph unicode="&#xd0;" horiz-adv-x="825" d="M30 550v193l105 5l-2 558q53 4 101 4q211 0 329 -68q144 -83 188 -233.5t44 -376.5q0 -227 -55 -390t-188 -217q-94 -39 -259 -39q-69 0 -151 7l-5 557h-107zM338 1077l2 -327l117 -2l-2 -199h-109l-4 -347h10q94 0 142 54q49 57 62.5 145.5t13.5 242.5q0 153 -15 247.5 t-72.5 138.5t-144.5 47z" />
<glyph unicode="&#xd1;" horiz-adv-x="728" d="M30 1315l192 1l250 -720l6 725l220 1v-1344l-211 -7l-234 643l-5 -627l-208 -4zM148 1470q0 188 127 188q44 0 97 -39l35 -25q16 -10 27 -10q21 0 21 40q0 12 -2 27l32 2q31 1 88 8q6 -40 6 -74q0 -153 -125 -153q-40 0 -91 36l-36 21q-15 10 -26 10q-24 0 -24 -49 q0 -7 1 -15l-129 -4q-1 19 -1 37z" />
<glyph unicode="&#xd2;" horiz-adv-x="780" d="M39 643q0 88 7 191q16 223 78 323.5t165 136.5q59 21 121 21q46 0 93 -11q110 -27 160 -118t63.5 -243t18.5 -316q1 -30 1 -61q0 -134 -18 -268q-22 -166 -98 -242t-199 -79h-14q-113 0 -181 47q-72 50 -120 159t-67 268q-10 86 -10 192zM229 1639l182 71l75 -236 l-123 -62zM268 666q0 -96 5 -172q8 -114 28 -186t48 -103q25 -30 60 -30q3 0 6 1q38 2 68 51t40 162q7 89 7 182v49q-3 117 -8.5 225.5t-26 169.5t-60.5 77q-17 6 -33 6q-22 0 -42 -12q-36 -21 -61.5 -90t-29.5 -228q-1 -54 -1 -102z" />
<glyph unicode="&#xd3;" horiz-adv-x="780" d="M39 643q0 88 7 191q16 223 78 323.5t165 136.5q59 21 121 21q46 0 93 -11q110 -27 160 -118t63.5 -243t18.5 -316q1 -30 1 -61q0 -134 -18 -268q-22 -166 -98 -242t-199 -79h-14q-113 0 -181 47q-72 50 -120 159t-67 268q-10 86 -10 192zM268 666q0 -96 5 -172 q8 -114 28 -186t48 -103q25 -30 60 -30q3 0 6 1q38 2 68 51t40 162q7 89 7 182v49q-3 117 -8.5 225.5t-26 169.5t-60.5 77q-17 6 -33 6q-22 0 -42 -12q-36 -21 -61.5 -90t-29.5 -228q-1 -54 -1 -102zM299 1474l75 236l182 -71l-135 -227z" />
<glyph unicode="&#xd4;" horiz-adv-x="780" d="M39 643q0 88 7 191q16 223 78 323.5t165 136.5q59 21 121 21q46 0 93 -11q110 -27 160 -118t63.5 -243t18.5 -316q1 -30 1 -61q0 -134 -18 -268q-22 -166 -98 -242t-199 -79h-14q-113 0 -181 47q-72 50 -120 159t-67 268q-10 86 -10 192zM164 1507l175 197l115 -4 l168 -195l-88 -102l-141 137l-137 -132zM268 666q0 -96 5 -172q8 -114 28 -186t48 -103q25 -30 60 -30q3 0 6 1q38 2 68 51t40 162q7 89 7 182v49q-3 117 -8.5 225.5t-26 169.5t-60.5 77q-17 6 -33 6q-22 0 -42 -12q-36 -21 -61.5 -90t-29.5 -228q-1 -54 -1 -102z" />
<glyph unicode="&#xd5;" horiz-adv-x="780" d="M39 643q0 88 7 191q16 223 78 323.5t165 136.5q59 21 121 21q46 0 93 -11q110 -27 160 -118t63.5 -243t18.5 -316q1 -30 1 -61q0 -134 -18 -268q-22 -166 -98 -242t-199 -79h-14q-113 0 -181 47q-72 50 -120 159t-67 268q-10 86 -10 192zM176 1470q0 188 127 188 q44 0 97 -39l35 -25q16 -10 27 -10q21 0 21 40q0 12 -2 27l32 2q31 1 88 8q6 -40 6 -74q0 -153 -125 -153q-40 0 -91 36l-36 21q-15 10 -26 10q-24 0 -24 -49q0 -7 1 -15l-129 -4q-1 19 -1 37zM268 666q0 -96 5 -172q8 -114 28 -186t48 -103q25 -30 60 -30q3 0 6 1 q38 2 68 51t40 162q7 89 7 182v49q-3 117 -8.5 225.5t-26 169.5t-60.5 77q-17 6 -33 6q-22 0 -42 -12q-36 -21 -61.5 -90t-29.5 -228q-1 -54 -1 -102z" />
<glyph unicode="&#xd6;" horiz-adv-x="780" d="M39 643q0 88 7 191q16 223 78 323.5t165 136.5q59 21 121 21q46 0 93 -11q110 -27 160 -118t63.5 -243t18.5 -316q1 -30 1 -61q0 -134 -18 -268q-22 -166 -98 -242t-199 -79h-14q-113 0 -181 47q-72 50 -120 159t-67 268q-10 86 -10 192zM124 1541q0 46 34 80.5t84 34.5 q49 0 83.5 -34.5t34.5 -80.5q0 -47 -34.5 -81t-83.5 -34q-50 0 -84 34t-34 81zM268 666q0 -96 5 -172q8 -114 28 -186t48 -103q25 -30 60 -30q3 0 6 1q38 2 68 51t40 162q7 89 7 182v49q-3 117 -8.5 225.5t-26 169.5t-60.5 77q-17 6 -33 6q-22 0 -42 -12q-36 -21 -61.5 -90 t-29.5 -228q-1 -54 -1 -102zM424 1541q0 46 34 80.5t84 34.5q49 0 83.5 -34.5t34.5 -80.5q0 -47 -34.5 -81t-83.5 -34q-50 0 -84 34t-34 81z" />
<glyph unicode="&#xd7;" horiz-adv-x="886" d="M30 988l133 136l279 -275l274 279l136 -133l-275 -279l279 -274l-133 -136l-279 275l-274 -279l-136 133l275 279z" />
<glyph unicode="&#xd8;" horiz-adv-x="883" d="M30 26l96 174q-52 260 -52 462q0 39 2 76q12 228 57 349.5t128 175.5q78 51 177 51h13q107 -4 200 -77l68 138l134 -82l-106 -193q32 -225 34 -459v-19q0 -222 -35 -375q-36 -160 -121 -215q-80 -51 -174 -51h-14q-102 4 -205 94l-83 -131zM306 665q0 -64 2 -115l227 471 q-22 65 -62 76q-13 3 -26 3q-26 0 -49 -14q-36 -21 -61.5 -90t-29.5 -228q-1 -55 -1 -103zM347 263q36 -88 88 -88q1 0 3 1q53 2 83 51t40 152q7 85 7 187v44l-4 99z" />
<glyph unicode="&#xd9;" horiz-adv-x="736" d="M30 1319l229 -9q1 -745 7 -832t25.5 -169.5t67.5 -96.5q11 -3 21 -3q34 0 56 35q28 46 38 156q5 67 5 239q0 109 -2 260q-6 389 -8 411l227 9l10 -1338l-194 1l-8 99q-58 -82 -136 -89q-11 -2 -22 -2q-66 0 -123 40q-68 45 -116 155t-62.5 232.5t-14.5 901.5zM202 1639 l182 71l75 -236l-123 -62z" />
<glyph unicode="&#xda;" horiz-adv-x="736" d="M30 1319l229 -9q1 -745 7 -832t25.5 -169.5t67.5 -96.5q11 -3 21 -3q34 0 56 35q28 46 38 156q5 67 5 239q0 109 -2 260q-6 389 -8 411l227 9l10 -1338l-194 1l-8 99q-58 -82 -136 -89q-11 -2 -22 -2q-66 0 -123 40q-68 45 -116 155t-62.5 232.5t-14.5 901.5zM273 1474 l75 236l182 -71l-135 -227z" />
<glyph unicode="&#xdb;" horiz-adv-x="736" d="M30 1319l229 -9q1 -745 7 -832t25.5 -169.5t67.5 -96.5q11 -3 21 -3q34 0 56 35q28 46 38 156q5 67 5 239q0 109 -2 260q-6 389 -8 411l227 9l10 -1338l-194 1l-8 99q-58 -82 -136 -89q-11 -2 -22 -2q-66 0 -123 40q-68 45 -116 155t-62.5 232.5t-14.5 901.5zM137 1507 l175 197l115 -4l168 -195l-88 -102l-141 137l-137 -132z" />
<glyph unicode="&#xdc;" horiz-adv-x="736" d="M30 1319l229 -9q1 -745 7 -832t25.5 -169.5t67.5 -96.5q11 -3 21 -3q34 0 56 35q28 46 38 156q5 67 5 239q0 109 -2 260q-6 389 -8 411l227 9l10 -1338l-194 1l-8 99q-58 -82 -136 -89q-11 -2 -22 -2q-66 0 -123 40q-68 45 -116 155t-62.5 232.5t-14.5 901.5zM98 1541 q0 46 34 80.5t84 34.5q49 0 83.5 -34.5t34.5 -80.5q0 -47 -34.5 -81t-83.5 -34q-50 0 -84 34t-34 81zM398 1541q0 46 34 80.5t84 34.5q49 0 83.5 -34.5t34.5 -80.5q0 -47 -34.5 -81t-83.5 -34q-50 0 -84 34t-34 81z" />
<glyph unicode="&#xdd;" horiz-adv-x="760" d="M30 1313l221 28l134 -589l115 583l230 -11l-225 -866l4 -466l-219 -9l-10 478zM287 1474l75 236l182 -71l-135 -227z" />
<glyph unicode="&#xde;" horiz-adv-x="735" d="M30 1322l203 12l6 -201q11 1 23 1q195 0 316 -166q79 -110 79 -255q0 -87 -28 -186q-76 -267 -376 -277l2 -268l-212 15zM251 901l4 -443h2q122 0 163 124q21 65 21 122q0 52 -18 98q-38 95 -172 99z" />
<glyph unicode="&#xdf;" horiz-adv-x="756" d="M46 705q0 266 16 346q31 158 144 223q79 45 156 45q32 0 64 -8q107 -27 162.5 -110.5t68.5 -216.5q3 -36 3 -69q0 -91 -25 -161q-35 -97 -128 -125q155 -43 187 -258q6 -44 6 -82q0 -153 -100 -227q-99 -73 -214 -73q-33 0 -68 6l-16 214q16 -1 31 -1q114 0 142 74 q12 32 12 62q0 51 -33 99q-53 77 -156 77l-12 216q86 7 133 83q30 50 30 112q0 32 -7 66q-22 95 -82 95q-5 0 -9 -1q-68 -8 -95 -107q-11 -38 -11 -189q0 -246 28 -795l-212 3q-15 441 -15 702z" />
<glyph unicode="&#xe0;" horiz-adv-x="680" d="M31 259q0 102 67 188q68 88 184 99q22 2 42 2q80 0 106 -36q1 22 1 41q0 156 -79 165h-10q-80 0 -99 -147l-183 42q26 192 133 253q78 45 164 45q30 0 61 -5q119 -22 176 -155q36 -86 36 -400q0 -172 -11 -413l-194 4v109q-64 -70 -147 -70q-20 0 -41 4 q-109 21 -156.5 92.5t-48.5 176.5q-1 2 -1 5zM167 1249l182 71l75 -236l-123 -62zM226 260q0 -7 1 -14q5 -77 72 -86q6 -1 12 -1q60 0 118 76v91q-63 49 -109 49q-24 0 -43 -13q-51 -36 -51 -102z" />
<glyph unicode="&#xe1;" horiz-adv-x="680" d="M31 259q0 102 67 188q68 88 184 99q22 2 42 2q80 0 106 -36q1 22 1 41q0 156 -79 165h-10q-80 0 -99 -147l-183 42q26 192 133 253q78 45 164 45q30 0 61 -5q119 -22 176 -155q36 -86 36 -400q0 -172 -11 -413l-194 4v109q-64 -70 -147 -70q-20 0 -41 4 q-109 21 -156.5 92.5t-48.5 176.5q-1 2 -1 5zM226 260q0 -7 1 -14q5 -77 72 -86q6 -1 12 -1q60 0 118 76v91q-63 49 -109 49q-24 0 -43 -13q-51 -36 -51 -102zM237 1084l75 236l182 -71l-135 -227z" />
<glyph unicode="&#xe2;" horiz-adv-x="680" d="M31 259q0 102 67 188q68 88 184 99q22 2 42 2q80 0 106 -36q1 22 1 41q0 156 -79 165h-10q-80 0 -99 -147l-183 42q26 192 133 253q78 45 164 45q30 0 61 -5q119 -22 176 -155q36 -86 36 -400q0 -172 -11 -413l-194 4v109q-64 -70 -147 -70q-20 0 -41 4 q-109 21 -156.5 92.5t-48.5 176.5q-1 2 -1 5zM102 1118l175 197l115 -4l168 -195l-88 -102l-141 137l-137 -132zM226 260q0 -7 1 -14q5 -77 72 -86q6 -1 12 -1q60 0 118 76v91q-63 49 -109 49q-24 0 -43 -13q-51 -36 -51 -102z" />
<glyph unicode="&#xe3;" horiz-adv-x="680" d="M31 259q0 102 67 188q68 88 184 99q22 2 42 2q80 0 106 -36q1 22 1 41q0 156 -79 165h-10q-80 0 -99 -147l-183 42q26 192 133 253q78 45 164 45q30 0 61 -5q119 -22 176 -155q36 -86 36 -400q0 -172 -11 -413l-194 4v109q-64 -70 -147 -70q-20 0 -41 4 q-109 21 -156.5 92.5t-48.5 176.5q-1 2 -1 5zM115 1081q0 188 127 188q44 0 97 -39l35 -25q16 -10 27 -10q21 0 21 40q0 12 -2 27l32 2q31 1 88 8q6 -40 6 -74q0 -153 -125 -153q-40 0 -91 36l-36 21q-15 10 -26 10q-24 0 -24 -49q0 -7 1 -15l-129 -4q-1 19 -1 37zM226 260 q0 -7 1 -14q5 -77 72 -86q6 -1 12 -1q60 0 118 76v91q-63 49 -109 49q-24 0 -43 -13q-51 -36 -51 -102z" />
<glyph unicode="&#xe4;" horiz-adv-x="680" d="M31 259q0 102 67 188q68 88 184 99q22 2 42 2q80 0 106 -36q1 22 1 41q0 156 -79 165h-10q-80 0 -99 -147l-183 42q26 192 133 253q78 45 164 45q30 0 61 -5q119 -22 176 -155q36 -86 36 -400q0 -172 -11 -413l-194 4v109q-64 -70 -147 -70q-20 0 -41 4 q-109 21 -156.5 92.5t-48.5 176.5q-1 2 -1 5zM63 1151q0 46 34 80.5t84 34.5q49 0 83.5 -34.5t34.5 -80.5q0 -47 -34.5 -81t-83.5 -34q-50 0 -84 34t-34 81zM226 260q0 -7 1 -14q5 -77 72 -86q6 -1 12 -1q60 0 118 76v91q-63 49 -109 49q-24 0 -43 -13q-51 -36 -51 -102z M363 1151q0 46 34 80.5t84 34.5q49 0 83.5 -34.5t34.5 -80.5q0 -47 -34.5 -81t-83.5 -34q-50 0 -84 34t-34 81z" />
<glyph unicode="&#xe5;" horiz-adv-x="680" d="M31 259q0 102 67 188q68 88 184 99q22 2 42 2q80 0 106 -36q1 22 1 41q0 156 -79 165h-10q-80 0 -99 -147l-183 42q26 192 133 253q78 45 164 45q30 0 61 -5q119 -22 176 -155q36 -86 36 -400q0 -172 -11 -413l-194 4v109q-64 -70 -147 -70q-20 0 -41 4 q-109 21 -156.5 92.5t-48.5 176.5q-1 2 -1 5zM171 1150q0 66 47 113t113 47t113 -47t47 -113t-47 -113t-113 -47t-113 47t-47 113zM226 260q0 -7 1 -14q5 -77 72 -86q6 -1 12 -1q60 0 118 76v91q-63 49 -109 49q-24 0 -43 -13q-51 -36 -51 -102zM266 1147q0 -27 19 -46 t47 -19q27 0 46 19t19 46q0 28 -19 47t-46 19q-28 0 -47 -19t-19 -47z" />
<glyph unicode="&#xe6;" horiz-adv-x="1051" d="M33 256v9q0 101 68 185q71 88 186 98q16 1 31 1q89 0 126 -48q0 212 -89 218h-7q-83 0 -107 -144l-179 38q27 199 138 257q78 41 156 41q31 0 63 -6q108 -24 134 -95q42 106 174 106h5q135 -2 197 -85.5t77 -186t15 -274.5l-397 -6q0 -88 23 -145t102 -58q1 -1 2 -1 q77 0 83 142l182 -32q-14 -190 -82 -244t-190 -54q-123 0 -232 115q-65 -104 -188 -104q-21 0 -42 3q-155 20 -200.5 92t-48.5 178zM227 261q0 -8 1 -15q6 -77 72 -86q6 -1 13 -1q59 0 117 76v91q-63 49 -109 49q-24 0 -43 -13q-51 -35 -51 -101zM643 522l180 2q1 14 1 28 q0 95 -37 139q-27 31 -55 31q-16 0 -33 -11q-46 -30 -56 -189z" />
<glyph unicode="&#xe7;" horiz-adv-x="666" d="M37 431q0 56 7 118q13 134 65.5 223t140.5 119q49 17 100 17q40 0 82 -10q93 -24 135.5 -87t58.5 -166q6 -39 10 -87l-192 -18v15q-4 64 -19.5 99t-45.5 44q-13 4 -25 4q-17 0 -33 -7q-27 -13 -46.5 -52.5t-22.5 -134.5q-2 -34 -2 -67q0 -62 5 -124q6 -96 49 -136 q27 -25 54 -25q17 0 35 10q45 24 52 102q1 17 3 43l188 -13q-5 -54 -12 -98q-20 -115 -84.5 -173t-168.5 -60h-10q-98 0 -156 38q-62 39 -102.5 114.5t-56.5 185.5q-9 59 -9 126zM124 -317q0 31 14 55.5t33 24.5q7 0 27 -14q74 -54 147 -54q33 0 48 17t15 53q0 28 -14.5 43 t-43.5 15q-8 0 -23 -1t-22 -1q-21 0 -32.5 16t-11.5 43q0 25 7 74t21 116h79q-4 -24 -7 -50q-6 -52 -6 -69q0 -8 4 -13t8 -5q3 0 13 1t16 1q68 0 110 -48.5t42 -125.5q0 -82 -50 -128t-139 -46q-79 0 -157 31.5t-78 64.5z" />
<glyph unicode="&#xe8;" horiz-adv-x="671" d="M41 395q0 120 26 242q36 177 142 235q71 38 140 38q32 0 65 -8q99 -28 163 -126q63 -97 63 -397v-9l-395 -6q-3 -25 -3 -47q0 -52 17 -91q25 -58 102 -62q2 -1 5 -1q72 0 81 133l186 -19q-17 -194 -84 -251q-65 -56 -182 -56q-3 0 -6 1q-121 1 -209.5 72.5t-104.5 244.5 q-6 53 -6 107zM178 1249l182 71l75 -236l-123 -62zM259 522l180 2q1 14 1 28q0 95 -37 139q-27 31 -55 31q-16 0 -33 -11q-46 -30 -56 -189z" />
<glyph unicode="&#xe9;" horiz-adv-x="671" d="M41 395q0 120 26 242q36 177 142 235q71 38 140 38q32 0 65 -8q99 -28 163 -126q63 -97 63 -397v-9l-395 -6q-3 -25 -3 -47q0 -52 17 -91q25 -58 102 -62q2 -1 5 -1q72 0 81 133l186 -19q-17 -194 -84 -251q-65 -56 -182 -56q-3 0 -6 1q-121 1 -209.5 72.5t-104.5 244.5 q-6 53 -6 107zM247 1084l75 236l182 -71l-135 -227zM259 522l180 2q1 14 1 28q0 95 -37 139q-27 31 -55 31q-16 0 -33 -11q-46 -30 -56 -189z" />
<glyph unicode="&#xea;" horiz-adv-x="671" d="M41 395q0 120 26 242q36 177 142 235q71 38 140 38q32 0 65 -8q99 -28 163 -126q63 -97 63 -397v-9l-395 -6q-3 -25 -3 -47q0 -52 17 -91q25 -58 102 -62q2 -1 5 -1q72 0 81 133l186 -19q-17 -194 -84 -251q-65 -56 -182 -56q-3 0 -6 1q-121 1 -209.5 72.5t-104.5 244.5 q-6 53 -6 107zM112 1118l175 197l115 -4l168 -195l-88 -102l-141 137l-137 -132zM259 522l180 2q1 14 1 28q0 95 -37 139q-27 31 -55 31q-16 0 -33 -11q-46 -30 -56 -189z" />
<glyph unicode="&#xeb;" horiz-adv-x="671" d="M41 395q0 120 26 242q36 177 142 235q71 38 140 38q32 0 65 -8q99 -28 163 -126q63 -97 63 -397v-9l-395 -6q-3 -25 -3 -47q0 -52 17 -91q25 -58 102 -62q2 -1 5 -1q72 0 81 133l186 -19q-17 -194 -84 -251q-65 -56 -182 -56q-3 0 -6 1q-121 1 -209.5 72.5t-104.5 244.5 q-6 53 -6 107zM73 1151q0 46 34 80.5t84 34.5q49 0 83.5 -34.5t34.5 -80.5q0 -47 -34.5 -81t-83.5 -34q-50 0 -84 34t-34 81zM259 522l180 2q1 14 1 28q0 95 -37 139q-27 31 -55 31q-16 0 -33 -11q-46 -30 -56 -189zM373 1151q0 46 34 80.5t84 34.5q49 0 83.5 -34.5 t34.5 -80.5q0 -47 -34.5 -81t-83.5 -34q-50 0 -84 34t-34 81z" />
<glyph unicode="&#xec;" horiz-adv-x="284" d="M-15 1249l182 71l75 -236l-123 -62zM46 908h200l8 -926l-202 -4z" />
<glyph unicode="&#xed;" horiz-adv-x="264" d="M30 908h200l8 -926l-202 -4zM42 1084l75 236l182 -71l-135 -227z" />
<glyph unicode="&#xee;" horiz-adv-x="307" d="M-70 1118l175 197l115 -4l168 -195l-88 -102l-141 137l-137 -132zM55 908h200l8 -926l-202 -4z" />
<glyph unicode="&#xef;" horiz-adv-x="286" d="M-125 1151q0 46 34 80.5t84 34.5q49 0 83.5 -34.5t34.5 -80.5q0 -47 -34.5 -81t-83.5 -34q-50 0 -84 34t-34 81zM39 908h200l8 -926l-202 -4zM175 1151q0 46 34 80.5t84 34.5q49 0 83.5 -34.5t34.5 -80.5q0 -47 -34.5 -81t-83.5 -34q-50 0 -84 34t-34 81z" />
<glyph unicode="&#xf0;" horiz-adv-x="782" d="M39 500q0 188 49 279q58 107 137 129q43 12 80 12q29 0 55 -7q56 -18 70 -37l-3 129l-131 4v172l130 -2l-2 134l190 4l6 -133l132 1v-179l-129 1l3 -1037l-187 5v66q-47 -46 -129 -46h-16q-93 5 -168.5 101.5t-85.5 336.5q-1 35 -1 67zM240 479q4 -220 52 -266 q22 -21 52 -21q37 0 88 31v444q-33 51 -89 51q-14 0 -30 -3q-73 -16 -73 -215v-21z" />
<glyph unicode="&#xf1;" horiz-adv-x="630" d="M30 -12l4 960h180l2 -107q54 72 141 72h13q96 -6 151 -76t67 -173q9 -77 9 -439q0 -120 -1 -272l-201 5q8 291 8 459q0 178 -9 218q-18 76 -67 76h-1q-51 -1 -92 -75l-2 -644zM98 1081q0 188 127 188q44 0 97 -39l35 -25q16 -10 27 -10q21 0 21 40q0 12 -2 27l32 2 q31 1 88 8q6 -40 6 -74q0 -153 -125 -153q-40 0 -91 36l-36 21q-15 10 -26 10q-24 0 -24 -49q0 -7 1 -15l-129 -4q-1 19 -1 37z" />
<glyph unicode="&#xf2;" horiz-adv-x="672" d="M37 461q0 56 7 118q13 134 65.5 223t140.5 119q49 17 100 17q40 0 82 -10q93 -24 135.5 -87t58.5 -167.5t16 -217.5t-19 -227t-83.5 -172t-168.5 -60h-10q-98 0 -156 38q-62 39 -102.5 114.5t-56.5 185.5q-9 59 -9 126zM177 1249l182 71l75 -236l-123 -62zM250 471 q0 -62 5 -124q6 -96 49 -136q27 -25 54 -25q17 0 35 10q45 24 52 104q5 61 5 118v32q-2 70 -6 134.5t-19.5 99.5t-45.5 44q-13 4 -25 4q-17 0 -33 -7q-27 -13 -46.5 -52.5t-22.5 -134.5q-2 -34 -2 -67z" />
<glyph unicode="&#xf3;" horiz-adv-x="672" d="M37 461q0 56 7 118q13 134 65.5 223t140.5 119q49 17 100 17q40 0 82 -10q93 -24 135.5 -87t58.5 -167.5t16 -217.5t-19 -227t-83.5 -172t-168.5 -60h-10q-98 0 -156 38q-62 39 -102.5 114.5t-56.5 185.5q-9 59 -9 126zM246 1084l75 236l182 -71l-135 -227zM250 471 q0 -62 5 -124q6 -96 49 -136q27 -25 54 -25q17 0 35 10q45 24 52 104q5 61 5 118v32q-2 70 -6 134.5t-19.5 99.5t-45.5 44q-13 4 -25 4q-17 0 -33 -7q-27 -13 -46.5 -52.5t-22.5 -134.5q-2 -34 -2 -67z" />
<glyph unicode="&#xf4;" horiz-adv-x="672" d="M37 461q0 56 7 118q13 134 65.5 223t140.5 119q49 17 100 17q40 0 82 -10q93 -24 135.5 -87t58.5 -167.5t16 -217.5t-19 -227t-83.5 -172t-168.5 -60h-10q-98 0 -156 38q-62 39 -102.5 114.5t-56.5 185.5q-9 59 -9 126zM111 1118l175 197l115 -4l168 -195l-88 -102 l-141 137l-137 -132zM250 471q0 -62 5 -124q6 -96 49 -136q27 -25 54 -25q17 0 35 10q45 24 52 104q5 61 5 118v32q-2 70 -6 134.5t-19.5 99.5t-45.5 44q-13 4 -25 4q-17 0 -33 -7q-27 -13 -46.5 -52.5t-22.5 -134.5q-2 -34 -2 -67z" />
<glyph unicode="&#xf5;" horiz-adv-x="672" d="M37 461q0 56 7 118q13 134 65.5 223t140.5 119q49 17 100 17q40 0 82 -10q93 -24 135.5 -87t58.5 -167.5t16 -217.5t-19 -227t-83.5 -172t-168.5 -60h-10q-98 0 -156 38q-62 39 -102.5 114.5t-56.5 185.5q-9 59 -9 126zM124 1081q0 188 127 188q44 0 97 -39l35 -25 q16 -10 27 -10q21 0 21 40q0 12 -2 27l32 2q31 1 88 8q6 -40 6 -74q0 -153 -125 -153q-40 0 -91 36l-36 21q-15 10 -26 10q-24 0 -24 -49q0 -7 1 -15l-129 -4q-1 19 -1 37zM250 471q0 -62 5 -124q6 -96 49 -136q27 -25 54 -25q17 0 35 10q45 24 52 104q5 61 5 118v32 q-2 70 -6 134.5t-19.5 99.5t-45.5 44q-13 4 -25 4q-17 0 -33 -7q-27 -13 -46.5 -52.5t-22.5 -134.5q-2 -34 -2 -67z" />
<glyph unicode="&#xf6;" horiz-adv-x="672" d="M37 461q0 56 7 118q13 134 65.5 223t140.5 119q49 17 100 17q40 0 82 -10q93 -24 135.5 -87t58.5 -167.5t16 -217.5t-19 -227t-83.5 -172t-168.5 -60h-10q-98 0 -156 38q-62 39 -102.5 114.5t-56.5 185.5q-9 59 -9 126zM72 1151q0 46 34 80.5t84 34.5q49 0 83.5 -34.5 t34.5 -80.5q0 -47 -34.5 -81t-83.5 -34q-50 0 -84 34t-34 81zM250 471q0 -62 5 -124q6 -96 49 -136q27 -25 54 -25q17 0 35 10q45 24 52 104q5 61 5 118v32q-2 70 -6 134.5t-19.5 99.5t-45.5 44q-13 4 -25 4q-17 0 -33 -7q-27 -13 -46.5 -52.5t-22.5 -134.5q-2 -34 -2 -67z M372 1151q0 46 34 80.5t84 34.5q49 0 83.5 -34.5t34.5 -80.5q0 -47 -34.5 -81t-83.5 -34q-50 0 -84 34t-34 81z" />
<glyph unicode="&#xf7;" horiz-adv-x="776" d="M30 755l705 10l11 -223h-705zM260 326q0 54 39.5 93.5t96.5 39.5t96.5 -39.5t39.5 -93.5t-39.5 -93.5t-96.5 -39.5t-96.5 39.5t-39.5 93.5zM260 976q0 54 39.5 93.5t96.5 39.5t96.5 -39.5t39.5 -93.5t-39.5 -93.5t-96.5 -39.5t-96.5 39.5t-39.5 93.5z" />
<glyph unicode="&#xf8;" horiz-adv-x="970" d="M30 100l158 143q-23 130 -23 236q0 53 6 100q17 140 74 228.5t138 119.5q46 17 96 17q39 0 80 -10q95 -24 148 -119l128 133l105 -114l-185 -181q14 -96 14 -205q0 -110 -21.5 -224t-88 -174t-164.5 -60t-162 43t-88 81l-129 -124zM378 453l185 197q-4 20 -10 34 q-16 35 -46 44q-13 4 -25 4q-17 0 -33 -7q-27 -13 -46.5 -52.5t-22.5 -134.5q-2 -43 -2 -85zM398 265q12 -34 34 -54q27 -25 54 -25q17 0 35 10q45 24 52 104q5 61 5 118v33z" />
<glyph unicode="&#xf9;" horiz-adv-x="630" d="M33 676q0 120 1 272l201 -5q-8 -291 -8 -459q0 -178 9 -218q18 -76 67 -76h2q50 1 91 75l2 644l202 4l-4 -960h-180l-2 107q-54 -72 -141 -72h-13q-96 6 -151 76t-67 173q-9 77 -9 439zM153 1249l182 71l75 -236l-123 -62z" />
<glyph unicode="&#xfa;" horiz-adv-x="630" d="M33 676q0 120 1 272l201 -5q-8 -291 -8 -459q0 -178 9 -218q18 -76 67 -76h2q50 1 91 75l2 644l202 4l-4 -960h-180l-2 107q-54 -72 -141 -72h-13q-96 6 -151 76t-67 173q-9 77 -9 439zM223 1084l75 236l182 -71l-135 -227z" />
<glyph unicode="&#xfb;" horiz-adv-x="630" d="M33 676q0 120 1 272l201 -5q-8 -291 -8 -459q0 -178 9 -218q18 -76 67 -76h2q50 1 91 75l2 644l202 4l-4 -960h-180l-2 107q-54 -72 -141 -72h-13q-96 6 -151 76t-67 173q-9 77 -9 439zM87 1118l175 197l115 -4l168 -195l-88 -102l-141 137l-137 -132z" />
<glyph unicode="&#xfc;" horiz-adv-x="630" d="M33 676q0 120 1 272l201 -5q-8 -291 -8 -459q0 -178 9 -218q18 -76 67 -76h2q50 1 91 75l2 644l202 4l-4 -960h-180l-2 107q-54 -72 -141 -72h-13q-96 6 -151 76t-67 173q-9 77 -9 439zM49 1151q0 46 34 80.5t84 34.5q49 0 83.5 -34.5t34.5 -80.5q0 -47 -34.5 -81 t-83.5 -34q-50 0 -84 34t-34 81zM349 1151q0 46 34 80.5t84 34.5q49 0 83.5 -34.5t34.5 -80.5q0 -47 -34.5 -81t-83.5 -34q-50 0 -84 34t-34 81z" />
<glyph unicode="&#xfd;" horiz-adv-x="625" d="M30 949l194 -2q-3 -209 -3 -352q0 -256 9 -304q12 -75 68 -85q7 -2 14 -2q46 0 80 58v658l203 1l-7 -927q0 -201 -72.5 -272t-155.5 -84q-55 -9 -101 -9q-23 0 -44 2q-61 7 -145 46l47 193q122 -43 169 -43q3 0 5 1q45 2 74.5 26.5t39.5 62.5q8 32 8 108v32 q-42 -66 -118 -70q-14 -1 -27 -1q-58 0 -96 16q-48 20 -85.5 83t-47 184.5t-9.5 679.5zM219 1084l75 236l182 -71l-135 -227z" />
<glyph unicode="&#xfe;" horiz-adv-x="656" d="M30 -370l12 1687l190 -4l-6 -437q14 19 71 37q25 7 54 7q37 0 81 -12q78 -22 136 -129q49 -91 49 -279q0 -32 -1 -67q-10 -240 -85.5 -336.5t-168.5 -101.5h-16q-82 0 -129 46v-406zM224 223q51 -31 88 -31q30 0 52 21q48 46 52 266v21q0 199 -72 215q-16 3 -30 3 q-55 0 -90 -51v-444z" />
<glyph unicode="&#xff;" horiz-adv-x="625" d="M30 949l194 -2q-3 -209 -3 -352q0 -256 9 -304q12 -75 68 -85q7 -2 14 -2q46 0 80 58v658l203 1l-7 -927q0 -201 -72.5 -272t-155.5 -84q-55 -9 -101 -9q-23 0 -44 2q-61 7 -145 46l47 193q122 -43 169 -43q3 0 5 1q45 2 74.5 26.5t39.5 62.5q8 32 8 108v32 q-42 -66 -118 -70q-14 -1 -27 -1q-58 0 -96 16q-48 20 -85.5 83t-47 184.5t-9.5 679.5zM45 1151q0 46 34 80.5t84 34.5q49 0 83.5 -34.5t34.5 -80.5q0 -47 -34.5 -81t-83.5 -34q-50 0 -84 34t-34 81zM345 1151q0 46 34 80.5t84 34.5q49 0 83.5 -34.5t34.5 -80.5 q0 -47 -34.5 -81t-83.5 -34q-50 0 -84 34t-34 81z" />
<glyph unicode="&#x152;" horiz-adv-x="1053" d="M39 643q0 88 7 191q16 223 78 323.5t165 136.5q59 21 121 21q46 0 93 -11q110 -27 160 -118t63.5 -243t18.5 -316q1 -30 1 -61q0 -134 -18 -268q-22 -166 -98 -242t-199 -79h-14q-113 0 -181 47q-72 50 -120 159t-67 268q-10 86 -10 192zM268 666q0 -96 5 -172 q8 -114 28 -186t48 -103q25 -30 60 -30q3 0 6 1q38 2 68 51t40 162q7 89 7 182v49q-3 117 -8.5 225.5t-26 169.5t-60.5 77q-17 6 -33 6q-22 0 -42 -12q-36 -21 -61.5 -90t-29.5 -228q-1 -54 -1 -102zM529 -17v1327h494v-203l-283 -8v-358l222 9l6 -205l-223 -13l-4 -330 l257 8l17 -219z" />
<glyph unicode="&#x153;" horiz-adv-x="1086" d="M37 461q0 56 7 118q13 134 65.5 223t140.5 119q49 17 100 17q40 0 82 -10q93 -24 135.5 -87t58.5 -167.5t16 -217.5t-19 -227t-83.5 -172t-168.5 -60h-10q-98 0 -156 38q-62 39 -102.5 114.5t-56.5 185.5q-9 59 -9 126zM250 471q0 -62 5 -124q6 -96 49 -136 q27 -25 54 -25q17 0 35 10q45 24 52 104q5 61 5 118v32q-2 70 -6 134.5t-19.5 99.5t-45.5 44q-13 4 -25 4q-17 0 -33 -7q-27 -13 -46.5 -52.5t-22.5 -134.5q-2 -34 -2 -67zM456 395q0 120 26 242q36 177 142 235q71 38 140 38q32 0 65 -8q99 -28 163 -126q63 -97 63 -397v-9 l-395 -6q-3 -25 -3 -47q0 -52 17 -91q25 -58 102 -62q2 -1 5 -1q72 0 81 133l186 -19q-17 -194 -84 -251q-65 -56 -182 -56q-3 0 -6 1q-121 1 -209.5 72.5t-104.5 244.5q-6 53 -6 107zM674 522l180 2q1 14 1 28q0 95 -37 139q-27 31 -55 31q-16 0 -33 -11q-46 -30 -56 -189z " />
<glyph unicode="&#x178;" horiz-adv-x="760" d="M30 1313l221 28l134 -589l115 583l230 -11l-225 -866l4 -466l-219 -9l-10 478zM112 1540q0 46 34 80.5t84 34.5q49 0 83.5 -34.5t34.5 -80.5q0 -47 -34.5 -81t-83.5 -34q-50 0 -84 34t-34 81zM412 1540q0 46 34 80.5t84 34.5q49 0 83.5 -34.5t34.5 -80.5q0 -47 -34.5 -81 t-83.5 -34q-50 0 -84 34t-34 81z" />
<glyph unicode="&#x2c6;" horiz-adv-x="518" d="M30 1118l175 197l115 -4l168 -195l-88 -102l-141 137l-137 -132z" />
<glyph unicode="&#x2dc;" horiz-adv-x="530" d="M42 1081q0 188 127 188q44 0 97 -39l35 -25q16 -10 27 -10q21 0 21 40q0 12 -2 27l32 2q31 1 88 8q6 -40 6 -74q0 -153 -125 -153q-40 0 -91 36l-36 21q-15 10 -26 10q-24 0 -24 -49q0 -7 1 -15l-129 -4q-1 19 -1 37z" />
<glyph unicode="&#x2000;" horiz-adv-x="855" />
<glyph unicode="&#x2001;" horiz-adv-x="1710" />
<glyph unicode="&#x2002;" horiz-adv-x="855" />
<glyph unicode="&#x2003;" horiz-adv-x="1710" />
<glyph unicode="&#x2004;" horiz-adv-x="570" />
<glyph unicode="&#x2005;" horiz-adv-x="427" />
<glyph unicode="&#x2006;" horiz-adv-x="285" />
<glyph unicode="&#x2007;" horiz-adv-x="285" />
<glyph unicode="&#x2008;" horiz-adv-x="213" />
<glyph unicode="&#x2009;" horiz-adv-x="342" />
<glyph unicode="&#x200a;" horiz-adv-x="95" />
<glyph unicode="&#x2010;" horiz-adv-x="486" d="M30 705l415 10l11 -213l-415 -10z" />
<glyph unicode="&#x2011;" horiz-adv-x="486" d="M30 705l415 10l11 -213l-415 -10z" />
<glyph unicode="&#x2012;" horiz-adv-x="486" d="M30 705l415 10l11 -213l-415 -10z" />
<glyph unicode="&#x2013;" horiz-adv-x="576" d="M30 705l516 -10v-213l-505 10z" />
<glyph unicode="&#x2014;" horiz-adv-x="676" d="M30 705l605 10l11 -223h-605z" />
<glyph unicode="&#x2018;" d="M30 1043q0 82 33.5 167t139.5 154l67 -82q-53 -55 -76 -106q29 0 68.5 -39.5t39.5 -93.5t-39.5 -93.5t-96.5 -39.5t-96.5 39.5t-39.5 93.5z" />
<glyph unicode="&#x2019;" d="M30 1226q0 54 39.5 93.5t96.5 39.5t96.5 -39.5t39.5 -93.5q0 -82 -33.5 -167t-139.5 -154l-67 81q54 55 76 107q-29 0 -68.5 39.5t-39.5 93.5z" />
<glyph unicode="&#x201a;" d="M30 93q0 54 39.5 93.5t96.5 39.5t96.5 -39.5t39.5 -93.5q0 -82 -33.5 -167t-139.5 -154l-67 81q54 55 76 107q-29 0 -68.5 39.5t-39.5 93.5z" />
<glyph unicode="&#x201c;" horiz-adv-x="632" d="M30 1043q0 82 33.5 167t139.5 154l67 -82q-53 -55 -76 -106q29 0 68.5 -39.5t39.5 -93.5t-39.5 -93.5t-96.5 -39.5t-96.5 39.5t-39.5 93.5zM330 1043q0 82 33.5 167t139.5 154l67 -82q-53 -55 -76 -106q29 0 68.5 -39.5t39.5 -93.5t-39.5 -93.5t-96.5 -39.5t-96.5 39.5 t-39.5 93.5z" />
<glyph unicode="&#x201d;" horiz-adv-x="632" d="M30 1226q0 54 39.5 93.5t96.5 39.5t96.5 -39.5t39.5 -93.5q0 -82 -33.5 -167t-139.5 -154l-67 81q54 55 76 107q-29 0 -68.5 39.5t-39.5 93.5zM330 1226q0 54 39.5 93.5t96.5 39.5t96.5 -39.5t39.5 -93.5q0 -82 -33.5 -167t-139.5 -154l-67 81q54 55 76 107 q-29 0 -68.5 39.5t-39.5 93.5z" />
<glyph unicode="&#x201e;" horiz-adv-x="632" d="M30 93q0 54 39.5 93.5t96.5 39.5t96.5 -39.5t39.5 -93.5q0 -82 -33.5 -167t-139.5 -154l-67 81q54 55 76 107q-29 0 -68.5 39.5t-39.5 93.5zM330 93q0 54 39.5 93.5t96.5 39.5t96.5 -39.5t39.5 -93.5q0 -82 -33.5 -167t-139.5 -154l-67 81q54 55 76 107q-29 0 -68.5 39.5 t-39.5 93.5z" />
<glyph unicode="&#x2022;" horiz-adv-x="479" d="M30 697q0 87 61.5 148t147.5 61q87 0 148.5 -61t61.5 -148t-61.5 -148t-148.5 -61q-86 0 -147.5 61t-61.5 148z" />
<glyph unicode="&#x2026;" horiz-adv-x="1048" d="M30 126q0 54 39.5 93.5t96.5 39.5t96.5 -39.5t39.5 -93.5t-39.5 -93.5t-96.5 -39.5t-96.5 39.5t-39.5 93.5zM383 126q0 54 39.5 93.5t96.5 39.5t96.5 -39.5t39.5 -93.5t-39.5 -93.5t-96.5 -39.5t-96.5 39.5t-39.5 93.5zM746 126q0 54 39.5 93.5t96.5 39.5t96.5 -39.5 t39.5 -93.5t-39.5 -93.5t-96.5 -39.5t-96.5 39.5t-39.5 93.5z" />
<glyph unicode="&#x202f;" horiz-adv-x="342" />
<glyph unicode="&#x2039;" horiz-adv-x="557" d="M30 645l306 472l191 -51l-266 -428l264 -398l-185 -54z" />
<glyph unicode="&#x203a;" horiz-adv-x="557" d="M30 1066l191 51l306 -472l-310 -459l-185 54l264 398z" />
<glyph unicode="&#x205f;" horiz-adv-x="427" />
<glyph unicode="&#x20ac;" horiz-adv-x="835" d="M30 695v130l114 3q12 226 72.5 329.5t160.5 138.5q55 18 112 18q47 0 96 -12q108 -29 159.5 -118.5t54.5 -322.5l-203 -3q0 200 -51 235q-27 17 -55 17q-26 0 -54 -16q-58 -33 -70 -268h137v-140l-146 3v-121h146v-144h-152q3 -62 31.5 -141.5t102.5 -79.5t90 61 q12 48 12 126q0 21 -1 43l219 9q0 -280 -75.5 -364t-187.5 -93q-17 -1 -33 -1q-93 0 -168 44q-88 51 -133.5 158.5t-68.5 237.5h-105l-3 144h112l-1 127h-112z" />
<glyph unicode="&#x2122;" horiz-adv-x="798" d="M30 1223v96h292v-97l-89 1v-441l-107 -4l-3 445h-93zM342 776l6 540l113 1l87 -290l74 292h130l16 -540h-115l-2 240l-55 -169l-96 -3l-49 161l-2 -234z" />
<glyph unicode="&#x25fc;" horiz-adv-x="930" d="M0 0v930h930v-930h-930z" />
</font>
</defs>
</svg>
