<?xml version="1.0" encoding="utf-8"?>
<!-- Generator: Adobe Illustrator 17.1.0, SVG Export Plug-In . SVG Version: 6.00 Build 0)  -->
<!DOCTYPE svg PUBLIC "-//W3C//DTD SVG 1.1//EN" "http://www.w3.org/Graphics/SVG/1.1/DTD/svg11.dtd">
<svg version="1.1" id="Layer_1" xmlns="http://www.w3.org/2000/svg" xmlns:xlink="http://www.w3.org/1999/xlink" x="0px" y="0px"
	 width="76.4px" height="100px" viewBox="0 0 76.4 100" enable-background="new 0 0 76.4 100" xml:space="preserve">
<g>
	<path fill-rule="evenodd" clip-rule="evenodd" fill="#FFFFCC" d="M11.4,0h60.3c2.6,0,4.7,2.1,4.7,4.7V86c0,2.6-2.1,4.7-4.7,4.7
		H11.4c-2.6,0-4.7-2.1-4.7-4.7V4.7C6.7,2.1,8.8,0,11.4,0"/>
	<path fill-rule="evenodd" clip-rule="evenodd" fill="#B3B3B3" d="M9.6,0h60.3c2.6,0,4.7,2.1,4.7,4.7V86c0,2.6-2.1,4.7-4.7,4.7H9.6
		c-2.6,0-4.7-2.1-4.7-4.7V4.7C4.9,2.1,7,0,9.6,0"/>
	<path fill-rule="evenodd" clip-rule="evenodd" fill="#FFFFCC" d="M7.4,0h60.3c2.6,0,4.7,2.1,4.7,4.7V86c0,2.6-2.1,4.7-4.7,4.7H7.4
		c-2.6,0-4.7-2.1-4.7-4.7V4.7C2.6,2.1,4.8,0,7.4,0"/>
	<path fill-rule="evenodd" clip-rule="evenodd" fill="#3D3D3D" d="M4.7,0H65c2.6,0,4.7,2.1,4.7,4.7V86c0,2.6-2.1,4.7-4.7,4.7H4.7
		C2.1,90.8,0,88.6,0,86V4.7C0,2.1,2.1,0,4.7,0"/>
	<path fill="#333333" d="M65.3,84.2V6.5c0-0.7-0.3-1.3-0.7-1.8C64.1,4.3,63.5,4,62.8,4H7C6.3,4,5.6,4.3,5.2,4.7l0,0
		C4.7,5.2,4.4,5.8,4.4,6.5v77.7c0,0.7,0.3,1.3,0.7,1.8c0.5,0.5,1.1,0.7,1.8,0.7h55.8c0.7,0,1.3-0.3,1.8-0.7
		C65,85.6,65.3,84.9,65.3,84.2 M66.8,6.5v77.7c0,1.1-0.4,2.1-1.2,2.8v0c-0.7,0.7-1.7,1.2-2.8,1.2H7c-1.1,0-2.1-0.5-2.8-1.2l0,0
		C3.4,86.3,3,85.3,3,84.2V6.5c0-1.1,0.5-2.1,1.2-2.8h0C4.9,3,5.9,2.5,7,2.5h55.8c1.1,0,2.1,0.5,2.8,1.2l0,0
		C66.3,4.4,66.8,5.4,66.8,6.5z"/>
	<path fill-rule="evenodd" clip-rule="evenodd" fill="#DB0000" d="M52.7,0h5.5c0.2,0,0.4,0.2,0.4,0.4v89.9c0,0.2-0.2,0.4-0.4,0.4
		h-5.5c-0.2,0-0.4-0.2-0.4-0.4V0.4C52.3,0.2,52.4,0,52.7,0"/>
	<path fill-rule="evenodd" clip-rule="evenodd" fill="#DB0000" d="M14.6,90.8c-1.2,1.3,0.1,3.5,1.4,5.8c0.1,0.2,0.1,0.6-0.2,0.6
		l-3.3,0l-1.5,2.7c-0.1,0.2-0.5,0-0.6-0.2c-1.3-2.3-2.6-4.6-2.2-9C10.4,90.8,12.5,90.8,14.6,90.8"/>
</g>
</svg>
